<?xml version="1.0" standalone="no"?>
<!DOCTYPE svg PUBLIC "-//W3C//DTD SVG 20010904//EN"
 "http://www.w3.org/TR/2001/REC-SVG-20010904/DTD/svg10.dtd">
<svg version="1.0" xmlns="http://www.w3.org/2000/svg"
 width="740.008862pt" height="816.534627pt" viewBox="0 0 740.008862 816.534627"
 preserveAspectRatio="xMidYMid meet">
<metadata>
Created by potrace 1.12, written by Peter Selinger 2001-2015
</metadata>
<g transform="translate(-157.521421,919.000000) scale(0.100000,-0.100000)"
fill="#000000" stroke="none">
<path d="M5214 9113 c-55 -88 -108 -211 -125 -293 -12 -55 -7 -233 7 -278 7
-24 6 -24 -20 3 -37 37 -126 75 -192 82 -71 8 -284 -16 -284 -32 0 -6 25 -26
56 -45 61 -37 108 -87 130 -138 15 -36 14 -36 -50 10 -22 16 -62 35 -89 43
-60 18 -204 20 -279 4 -65 -14 -155 -58 -186 -92 l-24 -25 24 -7 c45 -13 78
-28 78 -35 0 -4 -16 -11 -35 -14 -120 -23 -317 -121 -595 -296 -237 -149 -241
-151 -329 -195 -176 -88 -326 -114 -435 -76 -33 12 -75 21 -95 21 -37 0 -114
-30 -125 -48 -12 -20 -97 19 -147 67 -72 71 -83 137 -31 194 30 31 62 35 85 9
22 -24 21 -56 -1 -94 -17 -30 -17 -30 12 -53 41 -32 74 -36 123 -15 85 38 117
176 61 270 -32 55 -60 81 -118 112 -66 34 -174 33 -250 -3 -72 -34 -130 -92
-166 -165 -26 -54 -29 -68 -29 -164 0 -88 4 -113 23 -154 65 -142 199 -245
380 -292 6 -2 12 -12 12 -23 0 -10 7 -42 17 -70 16 -52 16 -52 -9 -79 -49 -53
-68 -91 -84 -164 -9 -40 -27 -94 -40 -120 -13 -26 -24 -60 -24 -75 0 -16 -9
-45 -20 -66 -12 -21 -21 -55 -22 -75 0 -20 -7 -44 -14 -52 -20 -23 -44 -86
-44 -114 0 -14 -9 -40 -20 -59 -11 -18 -23 -55 -27 -82 -3 -27 -17 -64 -29
-83 -13 -18 -26 -54 -29 -80 -4 -26 -15 -63 -25 -82 -10 -19 -25 -64 -34 -98
-9 -35 -30 -95 -46 -132 -17 -38 -29 -83 -28 -99 1 -17 -5 -38 -15 -48 -24
-27 -47 -87 -47 -124 0 -17 -9 -42 -20 -56 -23 -29 -44 -98 -36 -119 3 -8 -5
-25 -18 -39 -24 -25 -54 -120 -42 -132 3 -3 -6 -19 -19 -35 -24 -28 -45 -85
-45 -121 0 -9 -12 -35 -26 -57 -17 -26 -29 -59 -32 -93 -3 -34 -13 -61 -28
-80 -13 -15 -26 -48 -30 -75 -4 -26 -17 -65 -30 -87 -13 -22 -26 -60 -30 -85
-4 -25 -17 -61 -30 -80 -12 -19 -26 -53 -30 -74 -4 -22 -21 -59 -38 -84 -29
-41 -31 -49 -31 -132 l0 -89 47 -68 c139 -203 340 -361 566 -443 138 -50 259
-71 457 -77 266 -8 452 19 646 94 203 79 418 258 523 437 34 57 36 66 36 149
0 88 -7 114 -40 152 -10 11 -20 36 -24 57 -4 20 -19 60 -35 90 -15 29 -31 71
-34 93 -4 21 -16 52 -27 67 -11 15 -25 51 -30 80 -6 28 -21 70 -34 92 -13 23
-26 62 -28 89 -3 26 -17 64 -30 85 -14 20 -28 57 -32 80 -3 24 -15 60 -25 80
-10 21 -22 57 -26 82 -4 25 -17 61 -29 80 -13 19 -25 54 -29 78 -3 24 -17 60
-31 81 -16 22 -26 51 -26 72 0 36 -30 112 -49 123 -6 4 -11 21 -11 37 0 16
-11 55 -24 87 -13 31 -31 82 -41 112 -9 30 -28 83 -41 118 -13 34 -24 73 -24
85 0 13 -11 45 -24 73 -13 27 -29 72 -36 99 -6 28 -19 64 -29 81 -10 17 -21
50 -25 75 -4 25 -15 59 -26 77 -11 18 -20 38 -20 45 0 20 -50 178 -75 237 -13
30 -31 85 -40 121 -18 70 -29 92 -82 157 l-32 39 35 38 c19 21 42 50 50 65 14
23 25 27 107 37 148 18 287 70 588 222 391 196 584 256 865 268 282 12 450
-40 616 -190 l47 -42 3 -74 3 -74 -30 -9 c-112 -33 -200 -66 -265 -98 -41 -21
-120 -52 -175 -69 -148 -45 -256 -113 -369 -232 -169 -178 -262 -385 -296
-654 -8 -66 -21 -108 -46 -160 -19 -38 -39 -96 -45 -127 -11 -52 -9 -65 11
-124 l22 -66 -45 -72 c-58 -94 -70 -134 -65 -216 3 -56 10 -77 39 -126 22 -35
39 -78 42 -107 13 -94 77 -173 180 -220 26 -12 47 -25 47 -28 0 -3 11 -23 25
-43 23 -34 24 -39 10 -59 -24 -35 -19 -100 10 -136 37 -43 26 -70 -69 -165
-62 -62 -85 -94 -100 -134 -50 -143 40 -287 202 -322 131 -27 262 42 302 161
16 46 19 49 28 32 6 -11 27 -39 47 -62 l35 -43 0 -195 0 -195 -54 -59 c-70
-75 -115 -151 -162 -273 -46 -119 -54 -126 -279 -245 -282 -150 -433 -213
-885 -367 -391 -134 -440 -153 -440 -168 0 -7 15 -75 34 -151 19 -77 33 -141
31 -143 -8 -8 -84 20 -122 45 -89 57 -94 136 -20 299 54 118 70 194 57 264
-38 203 -258 322 -435 235 -64 -31 -128 -103 -146 -166 -10 -33 -15 -38 -33
-33 -23 8 -28 8 -67 6 -34 -2 -81 -41 -60 -49 32 -13 94 -80 118 -127 38 -74
43 -97 53 -244 6 -74 15 -155 22 -180 42 -172 201 -330 443 -440 305 -139 825
-317 995 -342 173 -26 206 -32 283 -57 117 -36 208 -84 315 -165 50 -38 92
-71 92 -73 0 -4 -184 66 -195 75 -5 4 -59 26 -119 49 -61 23 -158 64 -216 92
-112 52 -153 59 -200 34 -41 -21 -60 -53 -60 -100 l0 -40 63 0 c57 0 71 -5
172 -60 159 -86 265 -132 395 -170 116 -34 330 -80 428 -92 52 -6 54 -8 94
-66 250 -368 736 -419 1043 -109 37 37 80 90 96 117 l28 50 88 13 c117 16 376
75 482 109 87 28 172 68 336 158 84 46 94 49 158 48 l69 -1 -6 44 c-8 58 -30
90 -72 104 -49 17 -92 6 -224 -55 -63 -29 -151 -65 -195 -80 -43 -16 -74 -30
-68 -32 7 -3 22 1 34 7 40 22 82 30 95 19 9 -7 20 -7 36 1 20 10 19 8 -4 -12
-58 -49 -339 -148 -533 -188 -49 -10 -91 -17 -92 -16 -2 1 45 22 103 46 72 30
133 64 192 108 191 142 293 185 527 222 157 25 238 45 460 117 357 116 645
233 782 319 147 92 256 221 292 349 6 22 18 110 25 195 20 217 47 281 152 356
l44 32 -34 16 c-38 18 -98 21 -125 7 -15 -9 -20 -3 -34 42 -78 245 -426 254
-548 15 -51 -99 -42 -202 29 -355 27 -60 53 -127 57 -149 8 -54 -12 -103 -57
-137 -36 -28 -107 -57 -138 -57 -20 0 -21 -6 18 145 11 44 24 99 27 122 6 39
5 43 -24 57 -16 9 -178 65 -358 125 -180 60 -402 139 -492 176 -275 110 -657
311 -682 356 -6 12 -19 49 -28 83 l-17 63 85 43 c148 76 247 195 286 347 20
76 19 119 -4 192 l-19 60 25 23 c13 12 38 52 56 88 28 57 32 75 32 145 0 60
-6 92 -22 127 -25 54 -92 131 -145 164 -36 23 -37 24 -31 77 3 34 1 62 -7 77
-20 37 12 94 64 114 54 21 142 98 167 148 11 22 23 66 26 96 4 37 16 72 35
101 71 112 64 218 -22 362 -40 66 -42 71 -29 101 18 43 15 124 -5 173 -9 22
-34 67 -55 100 -34 52 -41 74 -55 172 -40 268 -123 455 -285 639 -183 209
-449 358 -696 389 -27 3 -63 9 -79 12 l-28 5 4 80 c3 55 9 83 19 88 8 5 43 32
79 61 127 102 281 149 495 149 304 0 535 -69 960 -284 121 -62 256 -126 300
-144 88 -33 259 -72 322 -72 31 0 42 -5 50 -22 6 -13 29 -44 52 -69 l40 -46
-21 -19 c-37 -34 -69 -94 -88 -169 -10 -40 -30 -96 -44 -124 -14 -28 -26 -65
-26 -83 0 -18 -9 -46 -20 -63 -11 -17 -20 -47 -20 -68 0 -22 -8 -49 -20 -65
-11 -15 -24 -50 -29 -77 -5 -28 -18 -69 -30 -92 -11 -23 -21 -60 -21 -82 0
-22 -5 -43 -11 -47 -17 -10 -49 -86 -49 -118 0 -16 -10 -44 -22 -64 -11 -19
-25 -51 -29 -71 -15 -67 -31 -126 -40 -141 -35 -60 -42 -79 -42 -112 0 -21 -6
-43 -14 -50 -25 -21 -43 -66 -43 -108 0 -27 -7 -51 -20 -67 -23 -30 -44 -99
-36 -120 3 -8 -8 -32 -25 -53 -24 -29 -32 -50 -33 -84 -1 -25 -9 -53 -18 -63
-22 -24 -38 -68 -38 -104 0 -16 -11 -47 -25 -68 -16 -23 -28 -59 -32 -92 -4
-35 -14 -64 -29 -82 -24 -28 -44 -85 -44 -123 0 -11 -11 -35 -24 -53 -14 -18
-28 -51 -31 -73 -4 -22 -20 -65 -36 -95 -16 -30 -29 -67 -29 -82 0 -16 -9 -36
-21 -47 -12 -10 -28 -32 -36 -48 -17 -34 -26 -162 -13 -206 21 -75 161 -240
285 -340 152 -120 383 -211 615 -239 107 -14 338 -14 455 -1 324 38 605 183
795 413 80 97 110 155 121 234 11 75 3 111 -36 163 -14 19 -25 46 -25 61 0 15
-13 51 -29 81 -15 30 -31 72 -35 94 -4 21 -18 58 -32 81 -13 23 -24 53 -24 67
0 13 -15 53 -33 88 -18 35 -34 79 -35 98 -3 32 -7 44 -46 115 -9 17 -16 41
-16 55 0 14 -11 48 -23 75 -13 28 -29 73 -36 100 -7 28 -21 64 -32 81 -10 17
-19 44 -19 60 0 16 -11 47 -24 70 -12 22 -26 60 -30 83 -3 24 -18 65 -31 91
-14 27 -25 61 -25 75 0 14 -11 53 -25 87 -14 33 -34 95 -46 137 -12 42 -29 92
-39 111 -9 19 -20 55 -24 80 -4 25 -15 60 -26 77 -10 17 -22 49 -26 70 -4 21
-17 58 -29 83 -12 25 -27 67 -34 93 -6 27 -20 65 -31 85 -11 20 -20 47 -20 60
0 12 -8 39 -19 60 -10 20 -21 53 -25 73 -4 20 -17 63 -30 95 -13 33 -32 88
-41 123 -18 70 -34 100 -79 149 -28 30 -29 34 -18 65 7 18 12 49 12 69 0 34 2
36 47 48 74 18 201 89 252 140 156 156 173 399 38 546 -117 128 -298 149 -415
48 -73 -62 -101 -142 -81 -233 23 -111 126 -159 204 -97 l29 23 -17 36 c-22
45 -21 59 3 85 27 29 49 28 82 -3 41 -37 45 -76 14 -139 -28 -57 -77 -98 -142
-121 -35 -12 -41 -11 -75 12 -55 36 -106 40 -189 13 -60 -19 -84 -22 -150 -17
-156 12 -297 76 -616 278 -242 154 -434 255 -551 289 -46 14 -83 28 -83 32 0
3 20 14 45 25 25 10 45 21 45 25 0 5 -18 21 -41 38 -145 104 -416 112 -544 15
-47 -36 -52 -35 -34 12 15 40 45 70 122 119 37 24 67 48 67 52 0 13 -232 36
-294 29 -70 -7 -133 -35 -185 -82 -22 -21 -41 -35 -41 -32 0 3 7 32 15 64 32
121 14 269 -50 408 -35 77 -112 205 -124 205 -4 0 -30 -35 -57 -77z m96 -134
c43 -111 70 -223 70 -289 0 -62 -22 -143 -45 -166 -8 -9 -15 -14 -15 -12 0 2
5 30 10 63 13 82 0 120 -16 45 l-12 -55 -1 55 c0 31 6 82 14 113 21 79 18 101
-5 50 -21 -48 -29 -55 -23 -20 2 12 -3 47 -11 77 l-16 55 6 -80 c7 -92 -2 -92
-40 0 -15 35 -25 51 -26 38 0 -12 9 -42 20 -67 19 -46 38 -146 27 -146 -12 0
-60 116 -64 156 -3 26 2 63 12 95 18 54 72 169 79 169 3 0 19 -37 36 -81z
m-99 -344 c20 -43 24 -62 16 -67 -9 -6 -9 -8 -1 -8 7 0 14 -11 16 -25 9 -47
-24 -20 -61 49 -16 32 -18 43 -8 55 7 8 7 12 1 8 -7 -4 -11 6 -12 27 -1 19 -2
38 -3 42 -4 24 4 26 14 4 6 -14 23 -52 38 -85z m-303 -87 c58 -14 114 -48 159
-97 36 -38 68 -90 60 -98 -3 -2 -8 4 -11 15 -4 11 -13 23 -21 26 -18 6 -19 1
-4 -26 8 -14 8 -23 0 -31 -8 -8 -11 -6 -11 8 0 10 -3 16 -6 12 -3 -3 -19 9
-35 26 l-30 32 6 -35 6 -35 -22 34 c-32 48 -35 23 -4 -34 14 -26 25 -50 25
-54 0 -5 -54 51 -116 122 -38 43 -37 36 1 -18 12 -16 32 -48 44 -70 l23 -40
-47 50 c-25 28 -57 75 -72 105 -14 30 -34 67 -44 82 -11 14 -19 29 -19 32 0
10 68 7 118 -6z m828 4 c8 -5 0 -27 -27 -71 -21 -36 -39 -71 -39 -78 0 -7 -5
-13 -11 -13 -5 0 -7 6 -4 13 4 6 -1 3 -9 -7 -9 -11 -16 -23 -16 -28 0 -4 -5
-8 -11 -8 -6 0 -8 7 -5 15 18 46 14 44 -18 -5 -37 -58 -46 -57 -21 3 20 48 19
60 -2 22 -11 -20 -18 -25 -21 -16 -3 8 -10 1 -18 -19 -18 -42 -27 -35 -14 10
15 51 4 48 -24 -7 -28 -54 -33 -47 -11 16 17 50 12 54 -11 6 -9 -19 -20 -32
-25 -29 -5 3 -9 0 -9 -6 0 -6 -4 -9 -9 -5 -5 3 -12 -7 -14 -22 -4 -26 -4 -25
-6 5 -2 47 23 94 76 142 49 46 95 69 163 80 62 11 73 11 86 2z m-1093 -156
c45 -28 69 -47 106 -89 34 -38 18 -34 -17 4 -17 18 -35 29 -41 25 -6 -4 -9
-12 -6 -17 8 -11 -27 2 -94 36 -67 34 -72 32 -25 -11 l39 -36 -39 22 c-23 12
-42 17 -45 12 -4 -6 -21 -5 -46 4 -61 21 -87 16 -31 -6 48 -19 80 -40 61 -40
-29 0 -195 61 -195 71 0 9 75 41 118 50 68 15 169 3 215 -25z m1540 4 c31 -12
57 -25 57 -29 0 -9 -124 -57 -170 -65 -29 -6 -32 -5 -16 5 10 6 41 20 70 30
45 16 48 18 20 19 -17 0 -56 -9 -87 -19 -32 -11 -57 -16 -57 -10 0 6 -8 6 -22
-1 l-23 -11 23 17 c31 23 27 34 -9 24 -18 -5 -36 -7 -40 -4 -5 3 -9 1 -9 -5 0
-6 -7 -7 -17 -4 -11 4 -14 3 -9 -5 4 -7 3 -12 -2 -12 -19 0 -21 14 -4 26 9 7
12 14 6 14 -6 0 -28 -13 -49 -30 -49 -39 -57 -38 -19 1 31 33 91 67 139 80 48
13 155 2 218 -21z m-867 -77 c9 -21 40 -63 69 -93 58 -59 75 -93 74 -143 l0
-32 -15 39 c-8 22 -43 69 -78 105 -46 48 -65 76 -70 104 -5 26 -12 37 -25 37
-18 0 -41 -37 -41 -67 0 -9 -31 -49 -70 -89 -38 -39 -70 -80 -70 -90 0 -12 -3
-15 -10 -8 -19 19 9 81 59 129 26 25 59 68 71 96 21 44 26 49 57 49 30 0 36
-5 49 -37z m-626 -82 c80 -12 131 -24 156 -40 17 -11 17 -12 -6 -6 -178 43
-440 25 -628 -44 -83 -31 -116 -34 -42 -5 23 9 39 19 36 22 -11 10 -301 -123
-366 -168 -14 -9 -50 -30 -80 -46 -30 -16 -74 -42 -97 -57 -24 -15 -47 -27
-52 -27 -5 0 -14 -7 -22 -16 -7 -8 12 -2 42 16 30 17 79 42 109 57 30 14 67
34 82 45 31 21 178 90 178 83 0 -3 -26 -18 -57 -33 -32 -15 -80 -41 -108 -57
-164 -97 -529 -276 -626 -309 -137 -45 -286 -60 -297 -28 -2 7 2 10 11 6 23
-8 175 15 247 38 101 32 268 119 434 226 253 164 436 261 586 311 138 45 320
57 500 32z m1604 -20 c156 -40 312 -117 606 -301 124 -78 256 -157 293 -176
104 -53 233 -93 346 -105 89 -10 100 -14 88 -26 -12 -13 -27 -13 -93 -3 -214
33 -451 133 -824 350 -102 59 -203 116 -225 127 -79 40 -250 95 -349 113 -106
19 -280 28 -331 18 -16 -4 -48 -9 -70 -12 l-40 -6 36 14 c20 8 70 19 110 25
41 6 85 13 99 15 67 12 240 -4 354 -33z m-984 -34 c81 -75 105 -135 84 -214
-9 -34 -18 -28 -41 25 l-20 47 3 -37 c1 -21 -1 -38 -4 -38 -4 0 -20 28 -36 61
l-29 61 -15 -33 c-9 -19 -18 -45 -22 -58 -5 -23 -6 -24 -22 -7 -16 16 -18 15
-24 -9 -8 -30 -20 -32 -27 -4 -3 12 -10 19 -14 16 -17 -11 3 89 25 125 12 19
38 46 57 59 20 14 33 30 30 37 -7 20 8 11 55 -31z m-2695 -81 c54 -42 75 -82
73 -141 l-1 -50 -4 43 c-2 23 -9 42 -14 42 -6 0 -8 3 -6 8 3 4 -15 22 -39 41
-36 27 -56 35 -97 37 l-52 3 47 -7 c66 -11 68 -19 4 -19 -61 0 -107 -22 -139
-65 -25 -33 -34 -122 -18 -171 20 -60 87 -125 169 -166 41 -20 73 -40 71 -46
-6 -14 -24 -9 -98 27 -77 37 -135 93 -167 161 -27 59 -33 36 -8 -35 28 -82
122 -170 223 -208 49 -19 66 -40 32 -40 -42 0 -201 79 -161 80 11 1 10 3 -3
11 -10 6 -24 8 -32 6 -7 -3 -23 6 -36 21 -16 17 -17 21 -5 12 17 -13 18 -13
13 0 -4 8 -10 23 -13 33 -6 15 -16 21 -35 19 -3 -1 -11 10 -18 24 -6 15 -7 23
-1 19 5 -3 10 1 10 10 0 9 -4 14 -9 10 -32 -19 -41 111 -14 194 19 60 79 133
132 161 55 30 146 24 196 -14z m5499 20 c92 -38 158 -143 160 -251 1 -76 -20
-149 -40 -141 -8 3 -14 1 -14 -3 0 -5 -6 -11 -14 -14 -10 -4 -9 6 5 44 11 27
19 59 18 72 0 19 -2 18 -12 -8 -37 -95 -103 -159 -202 -199 -74 -29 -85 -31
-85 -13 0 6 27 23 60 35 70 27 152 97 182 156 28 54 30 158 4 201 -26 42 -69
74 -108 80 l-33 5 33 -10 c17 -6 32 -12 32 -15 0 -2 -24 -3 -52 -2 -97 1 -148
-46 -148 -140 0 -43 -1 -46 -14 -28 -19 29 -31 69 -17 61 14 -9 14 7 0 21 -12
12 11 75 39 107 49 54 134 72 206 42z m-3374 -54 c140 -46 238 -108 384 -243
6 -5 -6 -9 -30 -8 -21 0 -33 3 -27 6 15 6 1 23 -36 43 -22 11 -23 10 -17 -5 5
-15 4 -16 -8 -5 -9 6 -14 16 -13 22 1 5 -9 17 -23 26 -24 16 -25 16 -10 -3 14
-19 14 -19 -6 -3 -11 10 -35 21 -52 24 -17 4 -29 10 -26 15 3 5 -2 6 -11 3 -8
-4 -21 -1 -29 5 -7 6 -31 13 -52 15 -21 2 -70 9 -109 16 -38 6 -136 12 -217
13 -81 2 -151 6 -155 11 -4 4 21 5 57 2 48 -4 60 -3 47 5 -47 27 -195 2 -368
-61 -44 -17 -85 -28 -89 -25 -5 3 -11 1 -14 -4 -3 -5 -21 -12 -41 -15 -19 -4
-40 -13 -48 -20 -7 -7 -24 -17 -37 -20 -73 -21 195 116 335 172 71 28 150 51
225 66 14 2 81 3 150 2 108 -3 138 -8 220 -34z m1427 28 c119 -19 240 -62 411
-145 94 -46 172 -86 172 -90 0 -3 -12 1 -27 9 -16 7 -48 21 -73 29 -25 9 -70
25 -100 37 -123 46 -412 111 -427 96 -4 -3 5 -7 18 -7 22 -1 21 -2 -6 -10 -30
-8 -29 -8 5 -5 19 2 53 0 75 -4 22 -4 31 -8 20 -9 -17 -1 -18 -3 -5 -12 12 -8
10 -10 -10 -6 -14 3 -86 11 -161 18 -116 10 -154 9 -219 -6 -17 -3 -107 -40
-116 -47 -6 -5 -20 -5 -29 -1 -11 4 -16 2 -12 -3 3 -5 -2 -10 -11 -11 -62 -4
-156 -48 -212 -98 -9 -8 -23 -15 -30 -15 -24 0 81 99 159 151 176 116 378 161
578 129z m-3505 -142 c0 -10 1 -24 2 -30 1 -7 5 -16 9 -19 4 -3 1 -12 -8 -19
-13 -11 -15 -7 -15 28 0 22 -5 53 -10 69 -9 26 -9 27 5 9 8 -11 16 -28 17 -38z
m3307 38 c-2 -2 -29 -6 -59 -9 -34 -3 -47 -2 -35 3 19 8 103 14 94 6z m-1723
-18 c4 -7 4 -10 0 -7 -4 4 -33 1 -64 -6 -31 -8 -58 -12 -60 -10 -4 4 70 27
110 34 4 0 10 -5 14 -11z m1356 -80 c-20 -24 -70 -49 -77 -38 -4 6 -3 10 2 9
16 -4 62 24 56 34 -3 6 -1 7 5 3 7 -4 12 -2 12 5 0 7 3 9 6 6 4 -4 2 -12 -4
-19z m-1867 -72 c-11 -7 -47 -27 -80 -43 -33 -16 -110 -54 -171 -86 -102 -52
-247 -112 -301 -124 -13 -3 -20 -9 -17 -14 3 -5 1 -9 -5 -9 -5 0 -18 -3 -28
-6 -15 -5 -16 -4 -3 6 12 10 11 11 -10 6 -14 -3 -34 -6 -45 -7 l-20 0 20 -9
c13 -6 -1 -7 -40 -5 -42 3 -53 2 -35 -4 22 -8 19 -9 -17 -10 -24 -1 -43 4 -43
9 0 6 4 10 9 10 4 0 48 7 97 15 159 27 331 94 574 223 108 58 159 79 115 48z
m1655 -95 c0 -20 -87 -27 -188 -14 -34 4 -49 9 -40 14 17 12 228 11 228 0z
m1865 -111 c82 -34 183 -59 308 -76 30 -4 47 -11 47 -20 0 -15 -13 -14 -135
12 -144 31 -144 30 -302 106 -83 39 -116 63 -45 32 20 -9 78 -33 127 -54z
m-4425 20 c35 -38 46 -97 29 -157 -9 -34 -29 -63 -77 -111 l-65 -65 3 -671 c4
-855 3 -976 -10 -976 -7 0 -10 277 -10 838 l1 839 45 53 c53 62 64 86 64 140
0 53 -15 91 -48 117 l-27 23 33 0 c25 0 42 -8 62 -30z m4953 24 c12 -4 10 -10
-8 -29 -43 -42 -47 -159 -6 -210 11 -15 18 -32 14 -38 -3 -5 -2 -7 4 -4 6 4
21 -5 34 -19 24 -25 24 -30 29 -262 3 -130 7 -508 8 -839 2 -535 1 -603 -13
-603 -13 0 -15 91 -15 824 0 804 0 824 -20 848 -10 14 -16 29 -12 33 4 5 0 6
-9 2 -31 -11 -90 72 -104 146 -9 46 16 120 48 142 24 17 29 18 50 9z m371 -8
c-3 -7 -16 -19 -29 -26 -13 -7 -22 -16 -20 -20 3 -4 -5 -10 -16 -13 -13 -4
-18 -10 -13 -18 4 -8 3 -10 -5 -5 -6 4 -24 -3 -39 -15 l-27 -21 25 7 c48 15
55 15 25 1 -16 -7 -49 -17 -72 -21 -36 -6 -43 -4 -43 9 0 9 7 16 15 16 26 0
119 49 160 85 46 39 46 39 39 21z m-2834 -56 l0 -60 -44 0 -44 0 -4 50 c-1 28
0 50 5 50 4 0 7 -6 7 -12 0 -9 4 -8 10 2 8 12 10 12 10 -5 0 -11 5 -27 10 -35
7 -11 8 -2 5 28 -3 39 -2 42 21 42 23 0 24 -3 24 -60z m-2626 -25 c3 -8 20
-24 38 -35 l32 -19 -34 -15 c-19 -8 -38 -12 -41 -8 -12 13 -21 92 -11 92 5 0
12 -7 16 -15z m5176 -35 c0 -35 -3 -40 -23 -40 -13 0 -31 6 -41 13 -16 12 -14
15 21 39 21 14 39 26 41 27 1 1 2 -17 2 -39z m-2165 -169 c39 -14 48 -19 26
-16 -77 11 -351 16 -419 8 -91 -12 -81 1 18 21 106 22 294 15 375 -13z m-13
-107 c238 -39 454 -187 567 -389 12 -22 14 -29 4 -15 -69 96 -181 189 -306
255 -97 51 -315 128 -430 151 -45 9 -84 19 -87 21 -8 8 158 -7 252 -23z
m-1077 -49 c-38 -13 -78 -24 -88 -24 -10 -1 -36 -10 -57 -21 -51 -26 -51 -18
0 16 55 37 107 53 165 53 l50 -1 -70 -23z m690 -30 c372 -60 705 -344 853
-725 19 -50 62 -207 62 -227 0 -14 -46 89 -65 147 -10 30 -29 75 -43 100 -29
53 -120 182 -158 225 -28 32 -25 27 33 -60 73 -110 112 -173 127 -205 16 -34
16 -34 -1 -11 -212 291 -326 391 -607 533 -107 53 -117 73 -17 32 52 -22 49
-9 -6 21 l-48 26 45 -5 45 -5 -30 25 c-39 32 -190 81 -290 95 -92 13 -242 6
-330 -15 -33 -8 -61 -13 -63 -11 -6 6 111 47 173 60 81 18 211 18 320 0z
m-2469 -82 c-9 -10 -46 43 -46 66 0 23 3 21 25 -18 14 -24 24 -46 21 -48z
m5124 5 c-1 -25 -40 35 -40 60 0 25 1 24 20 -11 11 -20 20 -43 20 -49z m-5330
50 c0 -26 -16 -55 -25 -47 -5 6 14 69 21 69 2 0 4 -10 4 -22z m5125 -28 c-3
-31 -15 -65 -30 -88 -32 -47 -32 -37 1 22 14 25 21 46 15 46 -14 0 -14 25 -1
51 17 30 21 23 15 -31z m-3125 -20 c11 -7 8 -11 -15 -20 -17 -5 -39 -15 -50
-20 -16 -9 -15 -9 10 -5 l30 6 -33 -20 c-18 -12 -64 -37 -104 -56 -60 -30 -69
-32 -52 -14 10 12 33 30 49 40 17 11 26 19 22 19 -17 0 -89 -42 -152 -90 -56
-43 -63 -46 -46 -21 25 35 101 103 154 139 60 40 156 62 187 42z m1123 -5
c191 -50 382 -217 475 -415 49 -105 47 -121 -4 -35 -68 115 -194 235 -369 350
-77 50 -151 96 -165 102 -36 17 -4 15 63 -2z m-3148 -49 c-32 -41 -39 -45 -29
-14 6 21 45 60 53 53 1 -2 -9 -20 -24 -39z m5365 -7 c6 -10 10 -21 10 -25 0
-10 -30 17 -41 37 -7 15 -6 17 6 13 9 -4 20 -15 25 -25z m-5122 -8 c4 -27 -12
-21 -29 10 -9 18 -8 20 8 17 10 -2 19 -14 21 -27z m42 -84 c0 -6 -9 -2 -20 8
-11 10 -20 23 -20 28 0 6 9 2 20 -8 11 -10 20 -23 20 -28z m5117 16 c2 -6 -3
-13 -12 -16 -10 -5 -15 0 -15 14 0 21 21 22 27 2z m-5365 -656 l-3 -648 -30
-11 c-58 -20 -64 -69 -14 -118 19 -18 32 -37 29 -42 -3 -4 -61 -8 -130 -8
l-124 0 0 -66 0 -66 -75 7 -75 7 -2 -419 -3 -418 -115 -2 c-63 -1 -127 -2
-142 -3 -16 0 -28 -4 -28 -8 0 -5 20 -30 45 -56 52 -57 69 -104 55 -157 -16
-60 -24 -62 -157 -44 -176 24 -183 25 -183 35 0 6 4 10 10 10 15 0 40 57 42
95 1 19 7 36 15 39 20 8 53 85 53 125 0 20 9 44 24 61 13 16 26 48 30 72 4 24
18 66 31 93 14 26 25 58 25 69 0 12 14 50 30 85 17 36 34 85 37 110 3 25 17
60 30 78 15 19 27 53 32 85 4 31 17 67 30 85 16 21 25 50 28 85 3 29 11 58 19
64 20 16 44 78 44 114 0 18 11 45 25 64 15 19 28 53 32 82 3 27 17 65 29 84
13 19 26 55 30 80 4 24 15 58 25 75 9 16 20 49 24 72 4 23 15 59 26 80 10 20
19 51 19 68 0 16 11 52 25 79 14 27 25 65 25 83 0 19 9 46 20 61 11 15 24 52
29 81 5 29 13 56 18 60 19 12 33 50 33 91 0 25 8 53 19 68 10 15 21 47 25 70
4 24 15 60 25 80 10 21 22 59 25 86 4 26 11 44 14 40 4 -5 6 -301 4 -657z
m198 498 c12 -13 20 -35 20 -56 0 -19 9 -47 20 -64 11 -16 20 -44 20 -61 0
-17 11 -53 25 -80 14 -27 25 -62 25 -79 0 -16 11 -48 25 -70 15 -25 24 -55 25
-82 0 -29 7 -50 25 -71 18 -22 25 -41 25 -75 0 -30 8 -55 24 -79 12 -19 25
-56 28 -82 4 -29 14 -56 27 -70 11 -12 21 -33 21 -47 0 -39 19 -97 34 -102 8
-3 17 -28 21 -59 8 -58 29 -108 52 -121 8 -5 11 -16 8 -27 -9 -27 13 -98 36
-118 13 -12 19 -29 19 -62 0 -29 8 -57 22 -80 12 -19 28 -62 35 -94 7 -32 22
-69 33 -81 11 -12 20 -32 20 -44 0 -26 50 -183 61 -191 4 -3 12 -30 18 -61 7
-31 21 -65 31 -74 12 -11 20 -31 20 -52 0 -40 20 -93 43 -112 10 -7 17 -23 17
-35 0 -36 20 -94 38 -112 9 -10 22 -44 29 -77 7 -33 22 -70 33 -82 l21 -23
-33 -6 c-42 -7 -296 -36 -325 -36 -22 0 -22 1 -6 46 31 90 1 184 -70 220 -17
9 -59 19 -94 22 l-63 5 0 413 0 414 -75 0 -75 0 0 60 0 60 -95 0 c-106 0 -117
9 -68 54 45 42 28 115 -28 116 -10 0 -19 12 -23 31 -9 45 -8 1274 1 1283 5 4
13 -25 20 -65 8 -46 20 -80 33 -94z m4930 -494 l0 -659 -30 -7 c-33 -7 -60
-38 -60 -69 0 -10 16 -34 36 -53 35 -33 36 -35 19 -53 -13 -14 -16 -30 -12
-59 4 -35 1 -42 -37 -78 -58 -54 -80 -104 -80 -178 0 -33 3 -72 7 -87 l7 -28
-250 0 c-250 0 -250 0 -250 22 0 12 11 41 25 64 14 24 31 70 37 101 6 32 20
70 31 84 11 15 22 49 25 75 2 27 13 60 23 73 24 30 41 93 32 116 -4 11 0 22 9
29 24 17 48 72 48 108 0 19 11 49 25 70 14 21 30 60 35 86 5 27 18 64 28 83
11 19 23 51 26 71 4 21 16 57 26 80 11 24 20 58 20 76 0 18 9 45 20 60 11 15
22 48 24 74 2 26 14 59 25 75 12 15 24 51 28 78 3 28 15 62 25 76 11 14 23 51
27 82 4 30 13 62 19 69 6 8 14 34 18 58 4 25 15 61 25 81 10 20 21 59 25 88
18 140 24 -2 24 -608z m163 588 c4 -31 17 -68 32 -91 16 -24 24 -46 20 -58 -3
-10 3 -37 14 -59 11 -21 23 -58 27 -81 4 -23 17 -57 30 -76 15 -22 24 -49 24
-73 0 -24 8 -48 21 -65 12 -15 24 -51 29 -87 5 -37 17 -70 28 -83 12 -13 21
-41 24 -74 3 -31 12 -60 23 -72 10 -11 22 -45 26 -76 5 -35 15 -65 28 -78 12
-12 21 -35 21 -52 1 -37 23 -100 44 -123 9 -10 16 -32 16 -50 0 -36 24 -101
38 -101 5 0 12 -27 16 -59 4 -35 15 -69 26 -84 11 -14 20 -36 20 -49 0 -37 20
-101 38 -121 9 -10 22 -46 29 -80 8 -39 20 -68 33 -79 11 -9 20 -27 20 -40 0
-27 9 -56 45 -153 14 -38 31 -88 36 -110 6 -22 18 -53 28 -70 10 -16 21 -47
24 -69 4 -21 18 -55 32 -75 14 -21 25 -49 25 -63 0 -35 17 -78 39 -103 10 -11
21 -42 24 -68 3 -31 13 -57 28 -73 12 -13 20 -24 18 -24 -3 0 -59 -7 -124 -15
-66 -8 -130 -15 -142 -15 l-23 0 0 200 0 200 -70 0 c-38 0 -71 1 -72 3 0 1 -4
88 -7 192 l-6 190 -176 3 -176 2 9 48 c19 97 -8 175 -85 250 -41 40 -44 46
-34 71 10 28 8 42 -15 72 -10 14 -5 23 26 52 30 29 36 41 31 59 -10 31 -25 48
-52 59 l-23 9 0 237 c0 131 -3 424 -7 652 -4 281 -3 412 4 408 6 -4 13 -30 16
-58z m-5384 -11 c-11 -19 -14 -20 -17 -6 -2 9 2 27 9 40 11 19 14 20 17 6 2
-9 -2 -27 -9 -40z m2036 38 c-16 -8 -61 -45 -100 -82 -38 -38 -61 -61 -50 -52
29 23 75 44 120 56 40 11 40 11 15 -6 -14 -9 -62 -45 -107 -79 -85 -65 -105
-76 -82 -45 7 9 -4 1 -23 -18 -40 -38 -124 -171 -169 -265 -24 -51 -28 -54
-23 -25 11 66 64 203 104 272 84 141 227 259 314 258 l31 -1 -30 -13z m774
-18 c152 -47 279 -129 370 -238 25 -30 34 -46 21 -34 -27 22 -76 54 -84 54 -2
0 19 -23 47 -51 l52 -52 -45 34 c-49 38 -96 69 -104 69 -7 0 15 -39 44 -80 13
-19 -16 6 -65 55 -92 92 -282 230 -361 260 l-39 15 49 -6 c27 -3 79 -15 115
-26z m2321 7 c0 -12 -32 -67 -36 -63 -9 10 9 68 22 68 8 0 14 -2 14 -5z
m-4788 -17 c9 -7 23 -25 33 -40 15 -24 15 -28 2 -28 -9 0 -18 13 -22 30 -5 21
-13 30 -26 30 -10 0 -19 5 -19 10 0 14 13 13 32 -2z m5140 -13 c6 -29 -9 -33
-28 -7 -18 24 -17 32 5 32 12 0 20 -9 23 -25z m-2884 -76 c230 -60 519 -264
697 -494 90 -117 88 -117 -27 -3 -175 177 -374 320 -564 406 -129 59 -198 80
-109 33 52 -28 151 -118 140 -129 -2 -2 -20 8 -39 23 -34 26 -53 21 -21 -5 8
-7 15 -17 15 -23 0 -5 17 -31 37 -56 32 -40 33 -43 7 -20 -16 14 -47 37 -69
50 l-40 24 34 -45 c19 -25 48 -61 65 -80 44 -50 2 -15 -99 81 -190 182 -253
219 -377 220 -87 1 -131 -17 -191 -78 -37 -36 -74 -93 -62 -93 3 0 18 7 33 16
22 14 21 11 -5 -10 -36 -30 -43 -49 -15 -39 9 4 -11 -22 -46 -57 -35 -36 -80
-91 -99 -122 -20 -32 -37 -58 -39 -58 -9 0 20 72 47 115 31 50 31 50 4 25 -15
-14 -43 -53 -62 -88 -19 -35 -37 -61 -40 -59 -8 8 56 162 93 223 55 93 108
140 210 189 140 67 229 87 362 79 45 -3 117 -14 160 -25z m-2191 -81 c14 -16
14 -18 1 -18 -17 0 -48 57 -48 87 1 11 7 4 16 -17 8 -19 22 -42 31 -52z m5111
25 c12 -24 20 -43 17 -43 -14 0 -45 47 -45 69 0 29 0 29 28 -26z m-5572 -21
c-20 -20 -22 -1 -4 31 11 20 12 21 16 3 2 -10 -3 -26 -12 -34z m5144 24 c0
-14 -27 -42 -34 -35 -2 2 0 14 5 27 9 24 29 30 29 8z m472 -128 c-17 -17 -25
-3 -17 29 l7 28 11 -23 c7 -16 7 -26 -1 -34z m-5122 16 c0 -8 -7 -14 -15 -14
-17 0 -18 2 -9 24 7 18 24 12 24 -10z m-541 -63 c-28 -54 -34 -47 -12 12 9 26
21 43 26 38 4 -4 -2 -27 -14 -50z m5131 10 c-6 -12 -15 -21 -21 -21 -6 0 -8 4
-5 9 3 4 11 21 17 37 9 22 13 25 16 12 2 -9 -1 -26 -7 -37z m-2265 -27 c20
-24 35 -44 33 -44 -2 0 -26 23 -53 51 -28 27 -42 47 -33 44 9 -4 33 -27 53
-51z m-2307 5 c2 -23 2 -23 -13 -5 -18 24 -20 39 -2 34 6 -3 13 -15 15 -29z
m5135 -4 c12 -26 13 -33 3 -29 -11 4 -36 45 -36 59 0 17 19 -1 33 -30z m-3110
-27 c20 -10 103 -81 183 -158 141 -135 331 -286 484 -385 l75 -48 -87 -22
c-125 -32 -174 -52 -203 -86 -28 -35 -35 -106 -11 -115 8 -3 76 15 153 39 76
25 171 53 211 62 91 22 98 20 242 -96 58 -46 108 -87 113 -90 16 -11 19 -111
7 -222 -13 -117 -100 -479 -146 -607 -101 -280 -392 -602 -624 -689 -82 -31
-215 -34 -304 -7 -223 66 -503 356 -633 653 -29 66 -106 346 -133 481 -11 57
-23 140 -26 185 -13 166 33 477 92 637 21 55 100 200 109 200 2 0 -12 -39 -32
-86 -19 -47 -33 -88 -30 -90 3 -3 10 11 17 30 19 60 80 178 111 217 16 20 29
42 29 47 0 6 5 14 12 18 7 5 8 3 3 -6 -5 -9 -4 -11 3 -6 7 4 12 13 12 20 0 24
100 106 130 106 10 0 4 -9 -15 -26 l-30 -26 33 22 c18 12 30 26 27 31 -8 12
38 29 81 29 19 0 33 4 30 9 -10 15 76 0 117 -21z m-1988 -69 c19 -35 10 -54
-11 -25 -13 19 -20 56 -9 56 2 0 12 -14 20 -31z m4484 -41 c-18 -32 -24 -1 -8
38 12 27 13 27 16 7 3 -12 -1 -32 -8 -45z m644 26 c12 -24 14 -35 5 -32 -14 5
-42 68 -30 68 5 0 16 -16 25 -36z m-5763 2 c0 -13 -8 -30 -17 -37 -15 -13 -16
-11 -10 11 4 14 7 31 7 38 0 6 5 12 10 12 6 0 10 -11 10 -24z m3607 -88 c38
-56 76 -118 70 -118 -4 0 -32 41 -91 133 -29 43 -13 31 21 -15z m-2956 9 c-1
-4 -1 -15 -1 -24 0 -15 -2 -16 -10 -3 -13 20 -13 43 1 38 6 -2 10 -7 10 -11z
m5160 -39 c-4 -12 -13 -24 -19 -26 -16 -5 -15 35 1 41 23 10 26 7 18 -15z
m-5869 -60 c-4 -18 -32 -46 -32 -33 0 4 5 26 12 48 9 31 13 35 18 21 4 -10 5
-26 2 -36z m5138 28 c0 -16 -39 -66 -40 -52 0 5 5 24 12 42 11 32 28 37 28 10z
m-4377 -13 c3 -16 3 -30 1 -33 -7 -7 -24 23 -24 43 0 27 17 20 23 -10z m5142
-33 c17 -33 10 -40 -11 -12 -13 17 -19 42 -9 42 2 0 11 -13 20 -30z m-5130
-40 c3 -5 3 -15 -1 -21 -6 -11 -23 6 -24 24 0 10 18 9 25 -3z m4304 -86 c1 -6
-6 -11 -14 -11 -10 0 -14 6 -10 14 3 8 5 22 6 31 0 14 2 13 9 -3 5 -11 9 -25
9 -31z m831 19 c0 -22 -2 -25 -10 -13 -13 20 -13 40 0 40 6 0 10 -12 10 -27z
m-5974 -39 c-22 -47 -31 -38 -15 15 8 28 16 38 23 31 7 -7 4 -21 -8 -46z m871
36 c-3 -11 -1 -23 4 -26 5 -3 9 -12 9 -21 0 -13 -3 -13 -16 -3 -8 8 -19 21
-25 31 -7 15 -6 17 6 13 10 -4 15 0 15 10 0 9 3 16 6 16 4 0 4 -9 1 -20z
m5153 -61 c0 -10 -7 -19 -15 -19 -16 0 -19 9 -9 34 8 20 24 11 24 -15z m-905
-54 c-6 -41 -20 -64 -31 -52 -5 4 8 60 23 107 10 28 15 -9 8 -55z m-4247 5
c11 -32 10 -33 -3 -16 -8 11 -15 29 -15 40 0 25 4 19 18 -24z m-878 -12 c-1
-18 -8 -44 -16 -58 -8 -14 -13 -17 -10 -7 3 10 6 36 6 58 0 21 5 39 10 39 6 0
10 -15 10 -32z m-64 -55 c-11 -11 -17 4 -9 23 7 18 8 18 11 1 2 -10 1 -21 -2
-24z m6088 -2 c-6 -6 -24 19 -24 34 1 6 7 1 15 -9 8 -11 12 -22 9 -25z m-5094
3 c0 -20 -18 -17 -29 5 -9 16 -8 18 9 14 11 -3 20 -12 20 -19z m3014 -163 c97
-55 174 -81 241 -81 69 0 118 20 161 66 23 24 34 30 34 19 0 -42 -64 -113
-110 -123 -95 -19 -166 -8 -273 46 -52 26 -93 57 -149 114 -102 104 -143 164
-49 72 39 -39 105 -90 145 -113z m2146 120 c0 -30 -16 -33 -28 -6 -10 22 -9
25 8 25 13 0 20 -7 20 -19z m-5130 -23 c-1 -18 2 -46 5 -63 4 -24 0 -19 -19
19 -19 38 -22 52 -13 62 19 22 28 16 27 -18z m-1013 -15 c-7 -39 -30 -63 -35
-37 -5 20 18 74 31 74 6 0 7 -15 4 -37z m5123 4 c0 -21 -19 -62 -20 -42 0 6
-5 3 -10 -5 -8 -13 -10 -13 -10 1 0 28 22 79 31 73 5 -3 9 -15 9 -27z m1043
-119 c12 -10 17 -18 10 -18 -15 0 -63 62 -63 81 0 8 7 1 16 -16 8 -16 25 -38
37 -47z m-5103 -32 c13 -26 6 -67 -9 -50 -12 13 -22 74 -12 74 4 0 13 -11 21
-24z m4000 0 c0 -17 -27 -52 -34 -45 -9 9 15 70 25 63 5 -3 9 -11 9 -18z
m-5144 -71 l-15 -40 5 50 c7 64 17 89 21 55 2 -14 -3 -43 -11 -65z m6284 45
c0 -5 -4 -10 -10 -10 -11 0 -1 -32 14 -42 7 -5 5 -8 -5 -8 -9 0 -20 7 -23 16
-11 28 -6 54 9 54 8 0 15 -4 15 -10z m-5072 -170 c3 -39 2 -42 -12 -31 -19 16
-22 85 -3 79 6 -3 13 -24 15 -48z m3865 -6 c-17 -38 -17 -38 -21 -12 -4 33 16
74 29 61 6 -6 3 -25 -8 -49z m-5125 -8 c-6 -14 -15 -26 -20 -26 -12 0 -10 38
3 62 10 19 13 19 20 5 6 -10 5 -25 -3 -41z m624 31 c-31 -7 -46 -7 -54 1 -9 9
1 12 43 11 l54 -1 -43 -11z m5764 -48 c18 -58 18 -59 -11 -24 -13 17 -24 41
-25 53 0 38 22 20 36 -29z m-5074 -152 l-11 -22 0 22 c-1 12 -6 23 -12 25 -7
2 -6 13 2 33 l12 30 10 -33 c7 -22 7 -39 -1 -55z m817 24 c0 -14 -1 -14 -6 -1
-3 8 -10 24 -15 35 -9 20 -9 20 6 1 9 -11 16 -27 15 -35z m2951 25 c0 -8 -9
-24 -20 -37 l-19 -24 -1 23 c0 26 21 63 32 56 4 -3 8 -11 8 -18z m700 14 c0
-5 1 -13 3 -17 2 -7 -84 -5 -92 2 -1 2 0 8 4 14 8 14 85 14 85 1z m-5835 -43
c-8 -41 -35 -59 -35 -24 0 23 28 72 37 64 2 -3 1 -21 -2 -40z m2135 17 c0 -8
4 -14 9 -14 5 0 13 -9 16 -20 3 -11 13 -26 20 -34 17 -17 57 -156 45 -156 -7
0 -40 93 -40 117 0 4 -9 19 -20 33 -17 22 -17 17 5 -45 29 -84 32 -118 8 -113
-27 5 -76 177 -66 232 5 26 23 27 23 0z m2172 -154 c-23 -59 -34 -76 -52 -78
-17 -3 -21 0 -16 15 3 10 13 45 21 78 9 33 23 74 32 90 9 17 21 40 27 52 10
20 11 16 14 -30 2 -38 -5 -72 -26 -127z m-3780 -190 l-2 -360 -65 0 -65 0 0
360 0 360 68 0 67 0 -3 -360z m368 -67 c0 -236 -3 -438 -6 -450 -4 -14 -14
-23 -25 -23 -19 0 -19 14 -17 423 l3 422 -102 3 -103 3 -2 -423 c-3 -393 -4
-423 -20 -426 -17 -3 -18 23 -18 447 l0 451 145 0 145 0 0 -427z m5632 343
c12 -9 19 -18 15 -22 -6 -7 -87 72 -87 85 0 24 17 17 32 -13 10 -19 28 -42 40
-50z m-673 -16 c59 -43 101 -113 100 -164 l-2 -41 -6 47 c-4 26 -10 50 -13 53
-6 6 -2 -56 7 -98 2 -9 -1 -15 -6 -11 -5 3 -9 19 -9 36 0 18 -10 47 -22 65
-25 35 -45 46 -28 14 5 -11 10 -29 10 -41 0 -18 -3 -17 -31 12 -23 24 -27 26
-15 8 35 -53 37 -70 16 -97 -11 -14 -20 -21 -20 -15 0 6 5 14 10 17 17 11 11
33 -16 60 -31 31 -38 29 -20 -6 9 -17 10 -33 4 -50 -9 -24 -10 -24 -55 26 -44
48 -45 49 -39 20 6 -28 6 -29 -9 -10 -11 14 -15 38 -13 85 2 63 4 68 38 93 46
34 68 34 119 -3z m-5079 -13 c0 -8 -14 -12 -40 -12 -26 0 -40 4 -40 12 0 8 14
13 40 13 26 0 40 -5 40 -13z m-450 -1 c0 -22 -14 -32 -40 -28 -43 6 -39 32 5
32 19 0 35 -2 35 -4z m710 -11 c0 -11 -8 -13 -30 -8 -28 5 -30 4 -30 -26 0
-28 3 -31 30 -31 22 0 28 -4 24 -15 -4 -8 -17 -15 -30 -15 -13 0 -24 -4 -24
-10 0 -5 11 -10 25 -10 14 0 25 -5 25 -11 0 -6 -7 -8 -16 -5 -9 3 -22 6 -30 6
-11 0 -14 16 -14 70 l0 70 35 0 c24 0 35 -5 35 -15z m385 -45 c8 -16 15 -36
15 -45 0 -25 -37 14 -45 48 -10 37 10 35 30 -3z m3649 -27 c-4 -26 -9 -41 -12
-33 -3 8 -8 17 -12 20 -4 3 -1 20 7 39 19 45 26 34 17 -26z m620 45 c-4 -7 -9
-25 -11 -41 -5 -49 -21 -65 -17 -18 1 23 8 49 15 57 14 17 23 19 13 2z m-5744
-22 c0 -14 -6 -31 -13 -38 -8 -7 -16 -20 -20 -28 -3 -9 -6 -4 -6 12 -1 30 18
78 31 78 4 0 8 -11 8 -24z m830 11 c0 -9 -11 -12 -35 -9 -19 2 -35 8 -35 13 0
5 16 9 35 9 22 0 35 -5 35 -13z m5769 -21 c28 -44 26 -53 -4 -25 -13 13 -25
32 -25 42 0 25 6 21 29 -17z m-6229 -6 c0 -27 -3 -30 -25 -27 -14 2 -25 6 -25
10 0 4 0 16 0 27 0 15 7 20 25 20 21 0 25 -5 25 -30z m3920 -7 c0 -29 -15 -61
-24 -52 -5 5 14 79 21 79 2 0 3 -12 3 -27z m-3460 -12 c0 -6 -17 -7 -37 -4
-52 8 -54 13 -5 13 23 0 42 -4 42 -9z m-460 -45 c0 -9 -8 -12 -25 -8 -14 2
-25 8 -25 13 0 5 11 9 25 9 14 0 25 -6 25 -14z m460 6 c0 -4 -18 -6 -40 -4
-22 2 -40 6 -40 8 0 2 18 4 40 4 22 0 40 -3 40 -8z m5837 -95 c22 -51 11 -56
-14 -6 -12 24 -18 50 -15 62 6 21 6 21 10 2 1 -11 10 -37 19 -58z m-6293 48
c4 -11 -2 -15 -24 -15 -20 0 -30 5 -30 15 0 9 9 15 24 15 13 0 26 -7 30 -15z
m461 5 c4 -6 -12 -10 -39 -10 -25 0 -46 5 -46 10 0 6 18 10 39 10 22 0 43 -4
46 -10z m245 -8 c0 -9 -10 -12 -27 -10 -37 4 -40 23 -3 23 18 0 30 -5 30 -13z
m458 -24 c9 -24 9 -35 0 -45 -15 -19 -28 1 -28 45 0 41 12 41 28 0z m-1604
-39 c-5 -18 -15 -34 -22 -37 -15 -5 -16 29 0 63 16 36 34 16 22 -26z m2370 25
c3 -8 0 -14 -7 -14 -7 0 -23 -10 -37 -21 -22 -18 -22 -20 -5 -16 11 2 25 6 30
8 22 8 17 -16 -7 -34 -21 -16 -29 -17 -47 -7 -31 16 -26 80 7 96 28 14 58 8
66 -12z m2024 10 c15 -10 22 -25 22 -48 0 -41 -16 -56 -52 -49 -59 11 -77 75
-28 100 32 16 31 16 58 -3z m742 -7 c0 -13 -7 -32 -15 -43 -14 -18 -14 -18
-15 8 0 32 9 58 21 58 5 0 9 -10 9 -23z m-4265 3 l-30 -7 30 -5 c28 -5 28 -5
-7 -7 -20 0 -39 3 -43 8 -6 11 18 19 55 19 22 0 21 -1 -5 -8z m-430 -20 c4 -6
-7 -10 -24 -10 -17 0 -31 5 -31 10 0 6 11 10 24 10 14 0 28 -4 31 -10z m693 3
c-10 -2 -26 -2 -35 0 -10 3 -2 5 17 5 19 0 27 -2 18 -5z m-695 -53 c0 -14 -1
-62 -2 -107 0 -46 -4 -83 -9 -83 -14 0 -31 55 -35 116 -5 56 -3 63 16 72 l22
11 -22 0 c-13 1 -23 6 -23 12 0 6 12 9 27 7 22 -2 27 -8 26 -28z m707 18 c0
-4 -13 -8 -30 -8 -16 0 -30 4 -30 9 0 5 14 9 30 9 17 -1 30 -5 30 -10z m-267
-5 c-13 -2 -33 -2 -45 0 -13 2 -3 4 22 4 25 0 35 -2 23 -4z m3420 -60 c11 -13
31 -23 44 -23 13 0 23 -4 23 -10 0 -16 -37 -12 -54 6 -9 8 -16 12 -16 7 0 -4
-7 5 -15 21 -8 15 -15 33 -14 40 0 6 3 4 6 -4 3 -8 15 -25 26 -37z m916 -29
c5 -32 17 -76 27 -96 17 -37 17 -39 -5 -93 -13 -30 -23 -72 -24 -93 0 -23 -9
-48 -24 -66 -38 -45 -53 -93 -53 -166 0 -56 5 -78 30 -125 17 -31 30 -58 30
-59 0 -5 -301 32 -307 38 -2 2 7 16 21 31 15 16 28 45 32 72 4 26 16 55 30 70
24 26 44 80 44 120 0 12 5 25 10 28 19 12 50 84 50 116 0 17 9 42 20 56 11 14
22 41 26 62 10 53 67 182 77 172 4 -4 12 -35 16 -67z m-4319 46 c0 -5 -16 -10
-35 -10 -19 0 -35 5 -35 10 0 6 16 10 35 10 19 0 35 -4 35 -10z m250 0 c0 -5
-15 -9 -32 -9 l-33 1 30 8 c17 4 31 8 33 9 1 0 2 -3 2 -9z m516 -61 c8 -16 14
-36 13 -46 0 -10 -7 1 -16 25 -8 24 -21 46 -29 49 -8 3 -14 10 -14 15 0 16 30
-12 46 -43z m-766 11 c0 -5 -16 -10 -35 -10 -19 0 -35 5 -35 10 0 6 16 10 35
10 19 0 35 -4 35 -10z m250 0 c0 -5 -13 -10 -30 -10 -16 0 -30 5 -30 10 0 6
14 10 30 10 17 0 30 -4 30 -10z m5269 -127 l0 -133 -564 0 c-506 0 -565 2
-565 16 0 29 20 54 38 48 10 -4 13 -3 6 3 -6 4 -9 25 -6 45 l4 38 507 2 506 3
3 28 3 27 -522 0 c-287 0 -523 1 -525 2 -1 2 -5 14 -9 28 l-6 25 565 0 565 0
0 -132z m-1339 97 c0 -19 -7 -33 -20 -40 -24 -13 -27 4 -8 45 15 34 28 32 28
-5z m-5144 -25 c-4 -14 -11 -25 -16 -25 -13 0 -13 12 1 47 13 32 24 15 15 -22z
m1214 8 c0 -8 -13 -13 -30 -13 -17 0 -30 5 -30 13 0 7 13 12 30 12 17 0 30 -5
30 -12z m510 -21 c0 -7 -4 -10 -10 -7 -5 3 -10 16 -10 28 0 18 2 19 10 7 5 -8
10 -21 10 -28z m-760 18 c0 -5 -15 -10 -34 -10 -19 0 -38 5 -41 10 -4 6 10 10
34 10 23 0 41 -4 41 -10z m5910 -15 c0 -17 -38 -16 -44 2 -3 7 1 10 10 6 7 -3
14 0 14 7 0 6 5 8 10 5 6 -3 10 -12 10 -20z m-5910 -33 c0 -4 -18 -6 -40 -4
-22 2 -40 6 -40 8 0 2 18 4 40 4 22 0 40 -3 40 -8z m1510 0 c0 -4 20 -39 45
-76 25 -38 50 -87 56 -109 13 -50 5 -113 -20 -151 -18 -27 -67 -66 -84 -66 -8
0 29 58 43 70 11 9 30 72 30 99 0 15 -15 51 -34 81 -62 98 -68 111 -62 136 6
22 26 35 26 16z m-1272 -9 c-10 -2 -26 -2 -35 0 -10 3 -2 5 17 5 19 0 27 -2
18 -5z m3177 -20 c-3 -15 -25 -57 -47 -95 -51 -85 -59 -138 -29 -196 12 -23
31 -50 43 -62 27 -25 13 -26 -28 -1 -33 20 -74 92 -74 129 0 40 32 115 77 183
48 72 70 88 58 42z m-2005 -3 c-6 -11 -32 -46 -57 -77 -25 -31 -52 -68 -59
-82 -22 -42 -17 -109 11 -158 26 -43 24 -53 -6 -30 -31 24 -59 82 -59 123 0
53 41 134 89 176 21 18 46 40 57 50 26 23 37 22 24 -2z m2166 -58 c105 -100
110 -222 12 -282 -41 -25 -48 -17 -16 18 35 37 48 65 48 102 0 43 -20 77 -90
157 -33 37 -60 72 -60 76 0 14 59 -26 106 -71z m2374 62 c0 -2 -13 -4 -30 -4
-16 0 -30 4 -30 8 0 5 14 7 30 4 17 -2 30 -6 30 -8z m-5951 -20 c2 -2 -12 -4
-32 -4 -20 0 -37 4 -37 10 0 8 58 3 69 -6z m256 6 c4 -6 -8 -10 -29 -10 -20 0
-36 5 -36 10 0 6 13 10 29 10 17 0 33 -4 36 -10z m3219 -50 c26 -40 32 -60 18
-60 -4 0 -13 14 -19 31 -8 20 -17 30 -26 26 -10 -4 -13 1 -9 19 2 13 5 24 7
24 1 0 14 -18 29 -40z m-4489 -17 c-11 -63 -24 -74 -25 -22 0 46 5 59 23 59 5
0 6 -16 2 -37z m1845 -5 c-1 -40 -2 -42 -15 -24 -16 21 -20 48 -8 59 15 16 23
4 23 -35z m600 23 c-15 -28 -12 -78 4 -84 8 -3 17 -2 20 4 2 5 3 4 2 -2 -4
-21 -36 -18 -47 3 -11 21 -5 64 13 85 16 19 20 16 8 -6z m2682 1 c6 -22 -16
-81 -24 -67 -7 14 2 85 12 85 4 0 10 -8 12 -18z m-4112 -8 c0 -2 -16 -4 -35
-4 -19 0 -35 4 -35 8 0 4 16 6 35 4 19 -2 35 -6 35 -8z m5954 0 c11 -28 6 -54
-9 -54 -10 0 -15 11 -15 35 0 36 13 47 24 19z m-5704 -4 c0 -5 -11 -10 -24
-10 -14 0 -28 5 -31 10 -4 6 7 10 24 10 17 0 31 -4 31 -10z m-254 -42 c3 -4
-11 -8 -30 -8 -20 0 -36 5 -36 10 0 12 59 10 66 -2z m254 -8 c0 -13 -30 -13
-50 0 -11 7 -7 10 18 10 17 0 32 -4 32 -10z m3205 -40 c-10 -17 -25 -1 -25 28
l0 26 16 -22 c8 -12 12 -27 9 -32z m-2071 -29 c5 -7 24 -11 49 -9 47 3 57 -13
37 -54 -11 -22 -10 -22 4 -4 9 11 16 34 16 50 0 48 11 80 21 64 15 -22 10
-115 -6 -131 -8 -8 -12 -17 -9 -19 10 -10 -29 -32 -59 -34 -47 -2 -49 -3 -41
-15 4 -7 1 -10 -7 -7 -22 7 -59 89 -59 130 0 21 8 53 17 71 l17 32 6 -31 c4
-17 10 -36 14 -43z m2167 37 c15 -25 19 -45 16 -79 -4 -50 -34 -101 -55 -94
-7 3 -10 0 -7 -5 3 -6 1 -10 -4 -10 -14 0 -14 27 -1 35 6 3 10 12 10 18 0 7
-9 1 -19 -12 -11 -14 -23 -21 -30 -17 -7 4 -18 3 -26 -4 -11 -9 -17 -6 -31 15
-9 14 -14 28 -11 31 3 3 12 -7 20 -22 8 -15 17 -22 20 -17 4 6 -1 26 -10 44
-19 36 -43 99 -43 112 0 4 12 -7 28 -23 26 -30 28 -31 67 -18 36 12 40 17 40
46 0 41 10 41 36 0z m-3551 -8 c0 -5 -15 -10 -34 -10 -19 0 -38 5 -41 10 -4 6
10 10 34 10 23 0 41 -4 41 -10z m240 0 c11 -7 7 -10 -18 -10 -20 0 -31 4 -27
10 8 13 26 13 45 0z m-490 -60 l0 -61 -57 3 -58 3 -3 58 -3 57 61 0 60 0 0
-60z m250 10 c0 -12 -37 -12 -65 0 -15 7 -10 9 23 9 23 1 42 -3 42 -9z m250 0
c0 -5 -11 -10 -24 -10 -14 0 -28 5 -31 10 -4 6 7 10 24 10 17 0 31 -4 31 -10z
m635 0 c9 -14 12 -89 3 -84 -7 4 -28 69 -28 87 0 10 18 9 25 -3z m3169 -34
c-4 -16 -13 -26 -25 -26 -16 0 -17 4 -8 26 15 41 20 47 31 36 5 -5 6 -21 2
-36z m-5124 5 c0 -11 -9 -29 -21 -42 l-20 -24 6 40 c4 22 9 43 12 48 7 12 23
-3 23 -22z m7090 -1 c0 -20 -5 -30 -15 -30 -10 0 -15 10 -15 30 0 20 5 30 15
30 10 0 15 -10 15 -30z m-6032 3 c-10 -2 -26 -2 -35 0 -10 3 -2 5 17 5 19 0
27 -2 18 -5z m5672 -148 l0 -146 -626 3 -626 3 -28 32 c-59 66 -59 165 0 225
l28 28 626 0 626 0 0 -145z m-5410 120 c0 -9 -9 -15 -25 -15 -16 0 -25 6 -25
15 0 9 9 15 25 15 16 0 25 -6 25 -15z m-262 -2 c-10 -2 -28 -2 -40 0 -13 2 -5
4 17 4 22 1 32 -1 23 -4z m6050 -62 c3 -8 -1 -12 -9 -9 -7 2 -15 10 -17 17 -3
8 1 12 9 9 7 -2 15 -10 17 -17z m-7188 -107 c-7 -7 -16 -11 -21 -8 -15 9 -10
46 9 67 17 19 17 19 20 -12 2 -18 -2 -39 -8 -47z m1601 47 c57 -58 26 -146
-56 -159 -22 -4 -282 -6 -577 -4 -465 2 -538 5 -538 17 0 13 69 15 517 15 375
0 514 3 506 11 -8 8 -161 11 -513 10 -330 -1 -499 3 -495 9 4 6 185 10 506 10
326 0 499 3 499 10 0 6 -140 11 -397 12 -219 1 -446 2 -505 2 -89 1 -108 4
-108 16 0 13 62 15 508 12 448 -2 510 -1 522 13 7 8 11 16 9 17 -2 1 -242 5
-533 8 -411 4 -530 8 -534 18 -3 9 117 12 578 12 l582 0 29 -29z m509 10 c13
-25 13 -51 0 -51 -5 0 -7 7 -4 15 4 8 2 15 -4 15 -6 0 -13 -6 -15 -12 -3 -7
-6 2 -6 20 -1 36 13 42 29 13z m3020 -13 c0 -25 -3 -29 -10 -18 -8 13 -10 12
-10 -2 0 -10 -4 -18 -10 -18 -14 0 -13 26 2 50 18 29 28 25 28 -12z m2102 -3
c4 -21 3 -23 -9 -14 -11 9 -12 8 -7 -5 3 -9 11 -16 17 -16 6 0 7 -3 4 -6 -11
-12 -37 18 -37 42 0 32 26 31 32 -1z m-2635 -90 c8 -9 13 -18 11 -21 -3 -2
-13 5 -23 16 -21 23 -11 27 12 5z m73 13 c0 -2 9 -27 20 -56 11 -30 16 -51 11
-48 -5 4 -7 -12 -5 -36 l4 -43 -13 46 c-7 25 -23 63 -35 83 -23 39 -22 56 4
56 8 0 14 -1 14 -2z m-72 -146 c15 -48 15 -82 2 -82 -5 0 -10 12 -10 28 0 26
-39 121 -63 153 -7 8 4 -1 24 -22 19 -21 41 -55 47 -77z m-106 -6 c11 -22 22
-66 24 -100 l4 -61 -14 61 c-8 34 -26 85 -41 115 -20 38 -23 50 -11 40 10 -8
27 -33 38 -55z m-157 -178 c5 -36 4 -40 -6 -23 -6 11 -25 34 -41 52 -26 27
-31 41 -34 100 l-5 68 40 -77 c22 -42 43 -96 46 -120z m2265 173 c76 -7 67 -8
-82 -9 -107 -1 -168 2 -168 8 0 11 122 12 250 1z m-6307 -36 c371 -42 1330
-33 1606 15 114 21 104 6 -26 -35 -104 -33 -287 -70 -441 -89 -118 -15 -212
-20 -127 -7 22 3 -63 5 -190 3 -169 -2 -254 1 -320 12 l-90 15 190 -4 190 -4
-223 14 c-361 23 -759 77 -777 106 -3 4 12 3 33 -1 20 -5 99 -16 175 -25z
m320 28 c-24 -2 -62 -2 -85 0 -24 2 -5 4 42 4 47 0 66 -2 43 -4z m4817 -27
c426 -39 1109 -39 1470 -1 78 8 146 12 151 9 5 -3 9 0 9 5 0 6 10 11 23 10 17
0 14 -5 -18 -19 -22 -11 -48 -17 -59 -14 -12 4 -16 2 -11 -5 4 -8 -1 -10 -17
-6 -12 3 -41 1 -63 -4 l-40 -10 50 4 c83 8 21 -11 -127 -38 -226 -42 -299 -51
-307 -38 -6 9 -24 9 -72 2 -35 -5 -176 -11 -314 -12 -307 -2 -332 -1 -319 10
5 5 37 5 71 1 34 -4 81 -4 105 1 23 4 81 9 128 10 64 1 45 4 -75 10 -88 4
-207 13 -265 19 -112 13 -120 14 -220 29 -88 14 -113 14 -104 -1 5 -8 2 -9
-10 -5 -10 4 -25 7 -34 7 -15 0 -15 2 -2 11 12 8 11 9 -5 5 -11 -3 -54 5 -95
19 -41 14 -61 23 -45 20 17 -2 104 -11 195 -19z m-4982 -63 c67 -10 122 -21
122 -25 0 -5 -6 -8 -13 -8 -28 0 -236 40 -258 50 l-24 11 25 -6 c14 -2 80 -13
148 -22z m5097 7 c34 -5 75 -11 89 -12 14 -1 26 -5 26 -9 0 -4 6 -7 13 -6 59
2 107 -4 102 -14 -8 -12 -82 -5 -215 23 -52 11 -100 20 -107 20 -7 1 -10 5 -7
10 4 5 13 7 21 4 8 -3 43 -10 78 -16z m-1425 -120 c-19 -73 -21 -87 -6 -55
l14 30 7 -39 c15 -80 -25 -190 -111 -306 -61 -81 -408 -434 -423 -429 -29 11
-248 220 -348 334 -142 161 -191 252 -194 358 -1 37 1 70 5 74 3 3 6 -3 6 -15
0 -12 4 -22 8 -22 5 0 5 30 0 66 -17 124 -8 130 44 29 48 -92 88 -156 88 -142
0 4 -7 22 -16 39 -30 58 -84 193 -69 173 8 -11 18 -24 22 -30 5 -5 39 -49 77
-97 37 -49 70 -88 73 -88 3 0 -2 10 -10 23 -28 39 -77 126 -77 137 0 15 16 12
30 -4 22 -28 152 -87 218 -102 146 -30 315 -6 412 59 27 19 47 37 42 42 -4 5
-1 5 6 1 7 -4 12 -2 13 6 0 10 2 10 6 1 6 -16 33 -17 33 -1 0 6 3 9 6 6 8 -8
-28 -76 -71 -134 l-36 -49 48 51 c26 28 61 67 77 88 22 28 32 34 42 25 11 -9
9 -21 -11 -66 -35 -77 -31 -78 15 -3 22 36 40 68 40 73 0 4 10 29 23 55 l22
47 3 -45 c2 -24 -2 -65 -8 -90z m-840 59 c90 -56 150 -79 206 -79 19 0 34 -4
34 -10 0 -13 -15 -12 -65 1 -22 6 -50 12 -62 13 -33 4 -103 38 -97 47 3 5 -1
9 -9 9 -16 0 -77 53 -77 67 0 4 4 3 8 -3 4 -6 32 -26 62 -45z m-2505 1 c49 -7
49 -7 10 -8 -22 0 -60 3 -85 7 -41 8 -42 9 -10 9 19 0 58 -3 85 -8z m5673 -7
c-10 -2 -28 -2 -40 0 -13 2 -5 4 17 4 22 1 32 -1 23 -4z m-5525 -10 c-18 -2
-48 -2 -65 0 -18 2 -4 4 32 4 36 0 50 -2 33 -4z m305 0 c-16 -2 -40 -2 -55 0
-16 2 -3 4 27 4 30 0 43 -2 28 -4z m4800 0 c-15 -2 -42 -2 -60 0 -18 2 -6 4
27 4 33 0 48 -2 33 -4z m351 3 c-2 -2 -60 -6 -129 -8 -69 -3 -105 -2 -80 2 47
7 216 13 209 6z m-5286 -13 c-24 -2 -62 -2 -85 0 -24 2 -5 4 42 4 47 0 66 -2
43 -4z m2617 -63 c-14 -4 -61 -8 -105 -7 l-80 1 85 6 c126 9 129 9 100 0z
m636 -153 c21 -62 30 -166 26 -302 -2 -75 -6 -105 -12 -95 -7 10 -8 5 -4 -17
9 -45 -26 -235 -38 -208 -7 16 -8 14 -4 -9 4 -33 -11 -106 -54 -256 -16 -58
-41 -148 -55 -200 -14 -52 -30 -99 -34 -103 -4 -4 -68 79 -141 185 -74 106
-159 227 -189 268 -31 41 -59 79 -63 84 -4 6 -23 1 -48 -13 -23 -13 -43 -21
-46 -19 -2 3 33 37 77 78 124 112 294 304 369 416 78 117 130 241 130 311 l1
48 34 -60 c19 -33 42 -81 51 -108z m-1380 -18 c69 -156 190 -314 395 -516 81
-81 146 -149 144 -151 -2 -3 -21 5 -41 17 -36 21 -38 22 -55 4 -17 -18 -145
-196 -303 -424 l-80 -114 -28 90 c-133 425 -186 703 -175 924 6 130 24 201 70
279 l32 53 6 -49 c4 -27 19 -78 35 -113z m-2075 -386 c87 -60 129 -157 108
-250 -5 -27 -29 -84 -51 -128 -23 -44 -48 -92 -55 -107 -8 -15 -18 -52 -23
-83 -18 -112 24 -205 119 -262 52 -31 127 -57 551 -188 298 -92 532 -194 726
-316 54 -34 140 -82 191 -106 87 -41 360 -136 431 -149 31 -6 45 -24 19 -24
-8 0 -14 -7 -14 -15 0 -8 4 -12 9 -9 4 3 8 -2 8 -10 0 -20 10 -21 -112 9 -113
27 -155 32 -95 9 43 -15 116 -74 93 -74 -8 0 -18 5 -21 10 -3 6 -14 10 -24 10
-10 0 -24 7 -31 15 -7 8 -17 15 -23 15 -13 0 32 -34 57 -44 10 -3 16 -9 13
-13 -4 -3 -37 14 -74 37 -498 314 -721 438 -927 519 -71 28 -132 51 -135 51
-3 0 34 -22 82 -50 48 -27 115 -70 149 -95 35 -25 96 -68 136 -96 77 -55 91
-69 42 -44 -17 9 -36 13 -42 9 -6 -4 -8 -3 -5 3 6 9 -25 25 -193 101 -140 63
-727 268 -737 258 -8 -8 -149 67 -205 110 -32 24 -58 40 -58 35 0 -15 82 -91
99 -92 10 0 11 -3 4 -6 -18 -7 -124 69 -118 85 3 7 1 11 -4 7 -5 -3 -25 14
-45 37 -76 89 -99 181 -72 288 15 58 62 157 71 148 2 -2 -3 -28 -11 -58 -10
-38 -13 -72 -8 -110 l8 -55 6 56 c4 31 14 70 24 88 9 17 23 44 32 61 8 16 24
36 35 43 10 8 16 17 11 22 -4 5 -1 5 7 0 12 -7 12 -10 -1 -19 -8 -6 -19 -22
-23 -36 -8 -24 -7 -23 17 5 36 44 58 78 58 90 0 5 -4 4 -9 -4 -6 -9 -11 -10
-15 -2 -4 6 -3 11 3 11 6 0 16 10 22 23 11 20 11 21 -4 8 -25 -20 -21 -5 4 18
14 13 19 26 15 38 -7 16 -10 15 -34 -13 -21 -24 -36 -31 -68 -33 -81 -4 -123
66 -79 133 16 24 24 27 58 24 39 -4 39 -4 17 14 -35 29 -70 33 -120 15 -27
-10 -46 -12 -48 -7 -4 12 -22 3 -22 -11 0 -6 5 -7 10 -4 14 9 13 3 -10 -46
l-20 -44 0 35 c0 82 38 151 102 184 53 27 142 18 199 -21z m5606 26 c34 -13
80 -55 99 -91 21 -40 16 -57 -7 -25 -11 15 -28 27 -37 27 -12 0 -8 -8 14 -31
l29 -31 -52 27 c-43 23 -60 26 -96 21 -26 -4 -53 -16 -63 -27 -18 -20 -18 -21
8 -9 22 11 33 9 71 -9 24 -12 49 -33 56 -47 9 -20 9 -24 -1 -18 -10 6 -10 4 0
-8 11 -14 11 -21 -2 -46 -20 -38 -36 -51 -77 -57 l-34 -6 43 22 c23 12 42 28
42 36 0 11 -7 9 -30 -7 -17 -12 -37 -19 -45 -16 -9 3 -15 -1 -15 -9 0 -8 -5
-15 -11 -15 -5 0 -7 5 -4 10 3 6 4 10 1 10 -2 0 -13 3 -23 6 -15 5 -15 4 -3
-5 10 -7 11 -11 2 -11 -7 0 -20 16 -29 35 -22 47 -31 44 -23 -7 8 -52 21 -78
66 -127 47 -53 96 -162 96 -214 0 -38 1 -39 10 -17 10 28 6 139 -6 159 -6 9
-4 12 5 9 28 -8 63 -100 67 -175 4 -65 1 -79 -28 -140 -47 -102 -197 -234
-250 -220 -12 3 -17 0 -14 -8 3 -7 0 -16 -7 -21 -8 -4 -10 -3 -5 4 4 7 2 12
-4 12 -6 0 -8 5 -5 10 9 14 -6 12 -35 -6 -25 -15 -25 -15 -1 -8 16 4 21 3 17
-5 -4 -6 -1 -11 6 -11 23 -1 -217 -97 -477 -192 -165 -60 -497 -169 -502 -165
-2 2 33 19 78 36 45 18 89 36 98 41 18 10 88 41 146 65 70 30 179 64 205 66
14 0 43 7 65 14 l40 14 -35 -5 -35 -5 25 15 c37 23 22 20 -96 -19 -110 -37
-176 -63 -292 -116 -37 -17 -71 -32 -77 -33 -5 -1 -58 -25 -117 -54 -59 -29
-111 -52 -114 -52 -22 0 339 245 404 274 23 11 41 21 39 23 -6 6 -255 -95
-337 -137 -182 -91 -340 -183 -580 -337 -173 -110 -200 -126 -200 -116 0 4 14
16 31 26 18 10 29 20 26 23 -3 3 -29 -10 -59 -28 -80 -51 -86 -53 -50 -18 18
17 70 47 115 66 45 18 74 33 65 34 -9 0 -27 -4 -40 -9 -46 -18 -134 -40 -178
-45 -25 -2 -53 -7 -63 -11 -16 -7 -18 -3 -15 25 l3 32 185 62 c205 68 295 108
415 183 248 154 539 273 1025 420 272 81 348 121 390 202 46 92 35 175 -47
339 -48 95 -58 125 -61 178 -4 54 0 72 22 119 26 53 80 105 127 124 33 13 112
13 146 0z m-5808 -226 c-5 -29 28 -71 69 -89 15 -7 21 -13 14 -13 -38 -2 -112
74 -97 99 7 12 16 13 14 3z m2739 -529 c5 -3 -15 -65 -67 -214 -38 -107 -43
-117 -84 -145 -24 -16 -65 -47 -90 -67 -25 -21 -49 -38 -54 -38 -5 0 -23 53
-41 118 -50 183 -50 163 3 232 25 33 50 58 55 55 4 -3 7 1 6 8 0 6 24 51 54
98 l55 86 80 -66 c44 -36 82 -66 83 -67z m620 -46 c34 -47 68 -91 76 -98 9 -7
16 -23 16 -37 0 -24 -57 -260 -66 -275 -3 -5 -18 1 -32 12 -15 11 -61 45 -102
74 l-75 54 -47 144 c-27 79 -48 150 -48 159 0 8 26 34 59 57 32 24 69 54 82
68 l23 24 26 -49 c15 -27 54 -87 88 -133z m-378 37 c0 -15 -47 -26 -91 -20
-72 10 -60 25 21 25 39 0 70 -2 70 -5z m-1449 -16 c19 -7 53 -27 76 -46 124
-100 145 -290 48 -443 -39 -61 -42 -41 -6 32 17 35 32 77 35 93 2 17 1 23 -1
15 -8 -23 -70 -117 -83 -125 -6 -4 -2 11 9 33 12 23 17 43 12 47 -5 3 -12 -3
-15 -13 -12 -38 -66 -80 -66 -51 0 15 -26 39 -34 32 -11 -11 -6 11 14 65 25
65 25 95 -1 151 -19 43 -44 68 -81 83 -23 10 -23 6 7 -38 14 -20 25 -43 25
-50 0 -19 -31 -25 -70 -14 -19 6 -37 10 -39 10 -2 0 0 -12 3 -26 9 -36 -12
-21 -30 22 -57 136 61 268 197 223z m2899 -18 c45 -32 70 -80 70 -132 0 -58
-9 -87 -21 -67 -7 11 -9 11 -9 0 0 -8 -10 -22 -22 -32 -17 -13 -26 -15 -39 -7
-10 6 -15 15 -13 19 6 10 -10 11 -19 1 -4 -3 -2 -12 4 -20 14 -16 -3 -17 -19
-1 -19 19 -14 62 13 102 28 42 22 45 -25 14 -41 -28 -70 -82 -70 -129 0 -60
29 -138 67 -180 37 -41 32 -52 -9 -19 -14 10 -29 16 -32 12 -4 -4 -7 -2 -6 3
5 21 -1 29 -10 15 -9 -15 -9 -16 -25 35 -2 8 -9 15 -15 15 -13 0 -3 -46 17
-78 8 -13 12 -26 10 -29 -6 -5 -57 48 -57 60 0 4 -5 5 -12 1 -7 -4 -8 -3 -4 4
4 7 2 20 -3 29 -8 14 -11 15 -12 3 0 -8 -9 3 -20 25 -23 49 -25 26 -3 -39 9
-26 14 -50 10 -53 -3 -3 -1 -14 5 -24 6 -12 6 -19 0 -19 -16 0 -60 101 -71
162 -13 70 8 184 44 239 68 102 200 145 276 90z m-1567 -113 c5 7 6 22 3 35
-3 12 -3 16 0 10 3 -7 10 -13 15 -13 6 0 8 4 5 9 -5 8 25 21 51 21 7 0 17 -31
25 -77 9 -58 14 -70 19 -52 6 21 7 21 8 -8 l1 -33 -80 0 c-76 0 -80 1 -80 23
0 17 2 19 10 7 5 -9 7 14 5 65 -2 50 -1 65 3 40 5 -26 10 -36 15 -27z m-2368
-198 c-4 -6 7 -10 24 -10 17 0 31 -4 31 -9 0 -6 8 -10 18 -10 44 -2 60 -6 56
-13 -3 -4 3 -7 13 -6 10 0 27 0 38 -1 17 -1 18 -3 5 -11 -12 -8 -11 -10 8 -10
12 0 40 -9 62 -20 22 -11 46 -17 56 -13 12 4 15 3 10 -5 -4 -7 -1 -12 8 -12
40 0 344 -111 386 -141 13 -9 13 -10 -1 -6 -10 3 -35 11 -58 18 -23 7 -41 15
-41 19 0 4 -23 10 -52 12 -29 3 -54 10 -56 16 -2 6 -10 8 -19 5 -11 -4 -14 -2
-9 5 4 7 2 10 -6 7 -7 -3 -49 9 -93 25 -44 17 -141 53 -216 80 -74 27 -155 58
-180 69 l-44 20 33 0 c20 1 31 -3 27 -9z m2568 -65 c137 -42 286 -165 345
-285 48 -98 68 -206 54 -305 -6 -44 -20 -105 -32 -137 -28 -75 -97 -181 -112
-172 -6 4 -8 3 -4 -4 10 -16 -90 -97 -163 -133 -163 -79 -324 -78 -490 4 -129
63 -245 211 -286 363 -9 32 -16 100 -16 149 -1 155 60 289 179 395 66 59 169
115 248 135 70 17 204 13 277 -10z m-1561 -93 c-4 -12 -1 -14 14 -8 14 5 16 4
8 -4 -8 -8 -21 -7 -48 4 -45 19 -46 26 -2 24 26 -1 33 -5 28 -16z m90 -426
c-3 -5 7 -7 21 -4 15 3 24 2 22 -3 -3 -4 4 -10 15 -14 11 -3 20 -11 20 -16 0
-6 4 -8 9 -5 5 4 31 -4 58 -15 26 -12 59 -21 73 -20 20 1 22 -1 10 -10 -12 -8
-9 -9 13 -5 15 4 27 2 27 -4 0 -5 9 -10 21 -10 11 0 30 -5 41 -11 11 -6 33
-15 49 -19 22 -7 27 -5 22 7 -4 11 6 9 43 -9 27 -14 77 -35 111 -48 34 -13 61
-26 59 -27 -5 -6 -207 45 -331 82 -138 42 -265 99 -315 143 l-35 31 36 -17
c20 -9 34 -21 31 -26z"/>
<path d="M4620 8371 c0 -24 55 -47 67 -29 3 7 1 8 -5 4 -7 -4 -12 -3 -12 2 0
5 -11 14 -25 20 -14 6 -25 8 -25 3z"/>
<path d="M6045 8241 c6 -5 37 -11 70 -14 43 -4 50 -4 25 2 -71 17 -104 21 -95
12z"/>
<path d="M6196 8211 c-3 -5 5 -11 17 -13 15 -3 24 0 24 9 0 15 -33 18 -41 4z"/>
<path d="M6281 8186 c8 -8 131 -47 136 -43 2 3 -24 14 -58 26 -60 20 -87 26
-78 17z"/>
<path d="M6520 8096 c0 -2 28 -21 63 -41 34 -19 112 -67 172 -105 112 -71 305
-174 312 -166 2 2 -31 23 -74 46 -43 24 -140 81 -217 127 -135 82 -256 148
-256 139z"/>
<path d="M4525 8035 c23 -8 149 -12 130 -4 -11 4 -47 8 -80 8 -33 -1 -55 -2
-50 -4z"/>
<path d="M5653 7955 c-18 -8 -33 -16 -33 -19 0 -5 71 22 79 30 9 8 -15 3 -46
-11z"/>
<path d="M4585 5937 c-27 -13 -67 -41 -87 -61 -42 -41 -102 -125 -95 -132 2
-3 24 12 47 31 63 52 92 65 152 65 58 0 197 -33 346 -82 55 -18 97 -27 102
-22 14 14 15 77 1 101 -6 13 -29 32 -51 43 -53 27 -218 69 -299 76 -56 4 -73
2 -116 -19z"/>
<path d="M4652 5731 c-40 -16 -88 -41 -107 -56 -20 -14 -40 -23 -45 -20 -6 4
-7 -1 -3 -11 4 -11 2 -15 -4 -11 -6 4 -13 -3 -16 -14 -5 -18 -9 -19 -27 -9
-35 19 -33 5 5 -28 19 -17 57 -38 85 -46 28 -8 62 -24 77 -36 17 -13 40 -20
72 -20 l46 0 -32 20 c-41 25 -59 56 -42 76 15 18 39 18 39 0 0 -8 15 -31 34
-50 26 -29 41 -36 70 -36 50 0 91 23 106 59 l12 31 19 -24 c22 -28 24 -45 7
-47 -7 -1 18 -5 57 -10 38 -4 71 -6 73 -5 1 2 -31 40 -73 84 -109 116 -186
143 -331 112 -46 -9 -81 -14 -79 -10 3 4 36 18 75 30 123 40 200 19 332 -88
75 -60 98 -63 52 -5 -56 68 -116 111 -179 127 -85 23 -140 19 -223 -13z m198
-146 c-7 -8 -16 -15 -21 -15 -5 0 -9 7 -9 15 0 9 9 15 21 15 18 0 19 -2 9 -15z"/>
<path d="M5626 5736 c-50 -19 -103 -62 -140 -114 -38 -54 -28 -64 21 -19 140
129 248 154 397 92 51 -21 41 -29 -14 -10 -61 22 -168 19 -232 -5 -56 -21
-134 -87 -183 -154 l-28 -39 33 6 c18 4 53 7 79 8 38 0 42 2 24 9 -28 11 -29
22 -5 43 25 23 29 21 36 -9 7 -28 57 -54 105 -54 34 0 88 41 102 77 10 28 20
29 42 5 15 -17 15 -20 1 -41 -9 -13 -31 -29 -48 -37 l-31 -13 41 -1 c25 0 66
11 100 27 32 15 73 27 90 27 17 1 30 6 27 11 -2 6 10 21 28 34 39 29 31 38
-13 15 -32 -17 -33 -17 -18 2 8 10 19 22 25 26 17 13 -2 19 -28 9 -29 -11 -41
-3 -27 18 6 10 -13 24 -74 55 -76 38 -87 41 -176 44 -63 1 -108 -3 -134 -12z
m84 -152 c0 -8 -4 -14 -9 -14 -11 0 -22 26 -14 34 9 9 23 -3 23 -20z"/>
<path d="M5055 5015 c-16 -38 -8 -78 19 -88 8 -3 39 -4 68 -1 54 4 54 4 66
-30 17 -46 35 -59 72 -51 16 4 28 10 25 15 -6 10 31 57 57 71 17 9 24 8 34 -5
11 -16 15 -16 43 -2 45 24 55 48 37 91 -17 40 -31 48 -15 9 11 -31 5 -57 -18
-76 -10 -7 -14 -8 -10 -1 23 38 -50 65 -102 38 -17 -8 -38 -26 -48 -39 l-18
-24 -26 31 c-20 24 -36 31 -77 37 -55 7 -66 1 -74 -35 -4 -18 -6 -18 -18 7 -9
20 -10 34 -2 57 15 42 4 39 -13 -4z"/>
<path d="M4880 4723 c1 -28 67 -63 170 -90 139 -36 242 -40 365 -13 55 12 107
23 115 24 35 5 120 60 120 78 0 19 -28 25 -46 9 -9 -8 -181 -42 -229 -45 -13
0 -21 -4 -19 -7 2 -4 -14 -11 -35 -16 -29 -8 -61 -6 -127 7 -49 10 -80 18 -69
19 15 1 17 4 7 10 -7 4 -25 6 -40 4 l-27 -5 30 17 c20 11 43 15 70 11 34 -4
36 -4 15 5 -14 6 -43 8 -65 5 -104 -16 -167 -18 -178 -7 -18 18 -57 14 -57 -6z"/>
<path d="M5410 4710 c0 -11 14 -11 50 0 22 7 21 8 -12 9 -21 1 -38 -3 -38 -9z"/>
<path d="M5110 4522 c0 -18 34 -54 70 -72 47 -24 107 -26 158 -4 37 15 92 61
92 76 0 5 -12 2 -27 -6 -36 -18 -107 -30 -158 -27 -75 5 -83 7 -109 24 -14 10
-26 14 -26 9z"/>
<path d="M5190 4511 c0 -4 11 -6 25 -3 14 2 25 6 25 8 0 2 -11 4 -25 4 -14 0
-25 -4 -25 -9z"/>
<path d="M5345 4435 c-16 -8 -23 -14 -14 -15 8 0 24 7 35 15 23 18 18 18 -21
0z"/>
<path d="M6258 5063 c6 -2 12 -11 12 -19 0 -8 9 -14 20 -14 11 0 20 4 20 8 0
9 -45 33 -58 31 -4 0 -1 -3 6 -6z"/>
<path d="M8188 4763 c12 -2 30 -2 40 0 9 3 -1 5 -23 4 -22 0 -30 -2 -17 -4z"/>
<path d="M2488 4633 c12 -2 32 -2 45 0 12 2 2 4 -23 4 -25 0 -35 -2 -22 -4z"/>
<path d="M7252 4530 c-24 -10 -52 -64 -52 -102 0 -36 35 -85 64 -90 26 -5 26
-5 10 13 -11 12 -13 19 -5 19 8 0 9 5 1 19 -26 50 -1 102 64 132 l41 19 -50
-1 c-27 0 -60 -4 -73 -9z"/>
<path d="M7490 4531 l-25 -7 23 -13 c17 -9 126 -11 451 -9 236 2 433 6 437 11
4 4 4 10 0 15 -10 9 -853 13 -886 3z"/>
<path d="M7625 4460 c-53 -4 35 -7 210 -7 165 0 287 3 270 7 -35 9 -350 9
-480 0z"/>
<path d="M7590 4411 c-53 -6 -54 -6 -21 -13 46 -11 611 -9 586 1 -26 11 -493
21 -565 12z"/>
<path d="M7535 4351 l-50 -6 49 -8 c64 -9 645 -8 671 2 36 14 -83 21 -355 19
-146 0 -287 -4 -315 -7z"/>
<path d="M3221 4099 c-30 -5 -133 -13 -230 -18 l-176 -10 195 5 c107 3 231 11
275 19 63 10 71 13 35 13 -25 0 -69 -4 -99 -9z"/>
<path d="M8445 4110 c-34 -6 -36 -7 -10 -8 17 0 48 3 70 7 33 7 35 9 10 8 -16
0 -48 -3 -70 -7z"/>
<path d="M8260 4090 c0 -5 -12 -7 -27 -5 -16 3 -107 1 -203 -4 l-175 -9 220 3
c203 3 292 9 304 20 2 3 -23 5 -57 5 -34 0 -62 -4 -62 -10z"/>
<path d="M2612 3083 c-6 -20 -7 -32 -2 -27 10 10 25 64 18 64 -3 0 -10 -16
-16 -37z"/>
<path d="M2442 2916 c-17 -37 -15 -45 4 -18 8 12 14 27 12 33 -2 6 -9 -1 -16
-15z"/>
<path d="M7939 3084 c11 -22 27 -47 36 -54 16 -13 8 1 -43 76 -7 11 -3 1 7
-22z"/>
<path d="M7610 2319 c-30 -11 -61 -23 -69 -25 -8 -2 -12 -7 -9 -9 5 -5 136 40
146 50 10 9 -12 4 -68 -16z"/>
<path d="M4857 2659 c-16 -21 -22 -37 -15 -34 13 5 52 65 46 71 -2 1 -16 -15
-31 -37z"/>
<path d="M5143 2051 c-57 -7 -103 -17 -103 -21 0 -3 11 -12 24 -19 37 -20 46
-53 46 -166 l0 -105 -34 0 c-65 0 -141 20 -164 44 -14 13 -26 40 -29 64 -6 47
-15 52 -37 20 -22 -31 -20 -96 4 -135 29 -48 72 -66 173 -71 l87 -4 0 -114 c0
-111 -1 -114 -22 -115 -72 -4 -86 8 -90 74 -3 48 -5 52 -30 55 -33 4 -51 -26
-51 -85 0 -55 25 -90 80 -115 73 -32 172 -9 210 49 15 22 18 49 18 140 l0 113
48 0 47 0 0 -156 c0 -144 1 -156 17 -149 10 3 45 1 79 -6 83 -17 129 -6 176
41 32 32 38 44 38 82 0 59 -23 90 -63 86 -31 -3 -31 -3 -28 -54 2 -44 -1 -54
-21 -68 -27 -19 -59 -21 -76 -4 -8 8 -12 49 -12 119 l0 106 88 5 c52 3 103 12
123 22 65 31 100 132 63 184 -22 32 -39 27 -40 -13 -1 -74 -62 -112 -181 -114
l-53 -1 0 104 c0 123 8 149 52 172 l33 18 -34 7 c-42 9 -191 23 -191 18 0 -2
7 -26 15 -53 9 -30 15 -90 15 -151 l0 -102 -31 -7 c-62 -12 -59 -18 -59 130 0
76 5 144 11 155 6 11 9 23 7 27 -2 4 -49 1 -105 -7z"/>
<path d="M4861 1354 c18 -27 67 -67 99 -83 21 -10 20 -8 -5 11 -16 13 -48 39
-69 58 -22 19 -33 26 -25 14z"/>
<path d="M6520 1709 c0 -6 -6 -9 -14 -6 -8 3 -16 2 -18 -4 -2 -5 -70 -32 -151
-59 -82 -28 -156 -55 -165 -60 -15 -9 -14 -10 4 -5 159 43 328 103 368 131 20
14 20 14 -2 14 -12 0 -22 -5 -22 -11z"/>
</g>
</svg>
