<?xml version="1.0" standalone="no"?>
<!DOCTYPE svg PUBLIC "-//W3C//DTD SVG 20010904//EN"
 "http://www.w3.org/TR/2001/REC-SVG-20010904/DTD/svg10.dtd">
<svg version="1.0" xmlns="http://www.w3.org/2000/svg"
 width="520.431400pt" height="574.407310pt" viewBox="0 0 520.431400 574.407310"
 preserveAspectRatio="xMidYMid meet">
<metadata>
Created by potrace 1.12, written by Peter Selinger 2001-2015
</metadata>
<g transform="translate(-110.682244,645.426641) scale(0.100000,-0.100000)"
fill="#000000" stroke="none">
<path d="M3664 6395 c-76 -120 -112 -277 -85 -373 5 -17 8 -32 6 -32 -2 0 -21
11 -41 25 -68 46 -135 54 -254 32 l-65 -13 56 -36 c33 -22 62 -50 72 -70 18
-38 14 -48 -11 -25 -50 46 -199 65 -290 38 -42 -12 -122 -59 -122 -70 0 -5 14
-14 32 -20 17 -6 29 -14 25 -17 -3 -3 -41 -18 -85 -33 -93 -33 -187 -83 -361
-193 -288 -183 -411 -225 -531 -183 -56 20 -75 19 -127 -6 l-44 -21 -46 28
c-82 52 -106 132 -49 169 44 29 78 -8 54 -60 -11 -25 -10 -29 11 -46 35 -28
68 -24 107 15 30 30 34 40 34 88 0 45 -5 62 -31 97 -99 138 -316 86 -374 -89
-53 -159 54 -330 239 -385 36 -11 40 -16 53 -64 13 -53 13 -53 -17 -87 -16
-19 -34 -53 -40 -76 -5 -24 -14 -54 -19 -68 -5 -14 -14 -40 -20 -57 -6 -18
-16 -48 -22 -65 -6 -18 -13 -44 -16 -58 -3 -14 -14 -43 -24 -66 -10 -22 -19
-48 -19 -58 0 -9 -7 -30 -15 -46 -8 -16 -16 -42 -17 -57 -1 -15 -10 -38 -19
-51 -10 -12 -21 -42 -24 -65 -4 -23 -14 -51 -21 -62 -8 -11 -14 -29 -14 -41 0
-12 -14 -54 -31 -94 -16 -39 -29 -79 -28 -88 2 -9 -7 -33 -19 -52 -12 -19 -22
-49 -22 -66 0 -17 -7 -37 -15 -44 -8 -7 -17 -28 -20 -49 -4 -20 -15 -52 -26
-72 -10 -20 -19 -49 -19 -63 0 -15 -9 -39 -20 -54 -10 -15 -21 -39 -22 -53 -2
-14 -12 -38 -22 -54 -10 -15 -21 -46 -23 -69 -3 -22 -12 -48 -20 -57 -8 -9
-17 -34 -20 -55 -3 -22 -12 -46 -20 -55 -8 -9 -17 -34 -20 -55 -3 -22 -14 -51
-24 -66 -11 -14 -19 -36 -19 -47 0 -12 -12 -40 -27 -63 -24 -35 -28 -51 -26
-100 3 -75 29 -117 147 -233 109 -108 220 -171 374 -212 86 -23 117 -26 272
-26 189 -1 273 12 399 59 142 54 292 173 373 297 38 59 40 65 36 129 -3 52 -8
72 -26 91 -12 13 -22 34 -22 48 0 13 -9 39 -20 57 -11 18 -20 41 -20 51 0 10
-11 39 -25 65 -14 26 -25 57 -25 69 0 12 -9 36 -20 52 -11 17 -20 43 -20 59 0
15 -8 45 -18 65 -23 45 -51 124 -61 173 -5 20 -16 48 -25 62 -9 14 -16 36 -16
48 0 13 -9 37 -20 53 -11 17 -20 40 -20 53 0 12 -9 40 -20 62 -11 22 -20 45
-20 51 0 7 -13 46 -29 88 -35 93 -48 133 -66 191 -22 73 -45 143 -59 175 -14
34 -43 115 -56 160 -29 97 -43 139 -70 215 -16 47 -30 86 -30 87 0 1 -13 18
-30 36 l-30 34 37 46 c33 41 42 46 92 52 98 12 234 63 405 150 290 149 451
197 666 198 172 1 275 -32 378 -121 39 -33 44 -43 49 -93 l5 -55 -66 -18 c-37
-10 -97 -33 -134 -51 -37 -17 -104 -44 -149 -59 -239 -79 -404 -301 -449 -600
-9 -57 -23 -114 -34 -131 -34 -56 -44 -118 -27 -170 l16 -46 -39 -75 c-50 -93
-52 -138 -12 -215 16 -30 32 -71 35 -92 8 -52 48 -102 107 -135 57 -32 88 -79
71 -110 -16 -31 -13 -56 10 -85 25 -33 18 -49 -56 -127 -82 -87 -95 -164 -40
-236 57 -75 168 -100 251 -56 42 21 84 75 84 106 0 26 13 18 45 -27 29 -41 30
-46 33 -173 l3 -131 -45 -49 c-50 -54 -97 -136 -117 -202 -18 -63 -66 -98
-263 -196 -202 -101 -255 -122 -572 -231 -132 -45 -250 -88 -262 -94 -27 -15
-28 -37 -2 -129 11 -39 20 -76 20 -82 0 -35 -111 25 -130 70 -15 37 -4 89 40
181 54 115 35 233 -48 297 -55 42 -95 55 -156 50 -73 -6 -127 -42 -157 -106
-23 -47 -26 -48 -65 -48 -22 1 -48 -5 -57 -13 -15 -12 -14 -15 11 -34 68 -53
90 -107 103 -249 5 -62 16 -133 24 -158 22 -67 82 -138 162 -196 145 -104 676
-302 873 -325 104 -13 248 -59 314 -101 52 -34 132 -98 121 -98 -9 0 -342 138
-386 160 -50 26 -99 26 -127 0 -12 -12 -22 -26 -22 -33 0 -7 -3 -22 -6 -34 -5
-20 -2 -21 40 -21 38 1 69 -11 174 -65 141 -73 239 -105 440 -144 l133 -26 28
-41 c115 -166 326 -251 506 -202 111 29 245 126 290 209 17 32 19 33 164 61
186 35 333 84 441 145 98 56 121 65 173 63 35 -2 37 0 37 29 0 41 -39 79 -83
79 -18 0 -69 -17 -113 -38 -43 -21 -107 -49 -141 -61 -67 -25 -81 -35 -35 -26
27 6 27 6 -3 -8 -16 -8 -61 -24 -98 -36 -38 -13 -66 -25 -63 -28 5 -5 143 40
176 57 11 6 18 16 14 22 -4 7 1 8 16 3 17 -5 21 -4 15 5 -5 9 -4 11 3 6 6 -4
24 1 39 11 27 17 27 17 14 0 -29 -37 -182 -97 -357 -141 -92 -24 -97 -19 -18
15 39 16 89 45 110 63 54 45 151 103 212 126 29 11 105 29 170 39 143 24 284
64 502 143 245 89 377 156 461 235 93 88 117 140 130 286 5 61 14 128 20 148
12 49 47 99 88 126 l34 23 -36 15 c-27 11 -43 12 -62 5 -15 -6 -28 -10 -29
-10 -2 0 -6 14 -10 32 -9 45 -49 93 -99 117 -81 39 -177 22 -243 -45 -78 -77
-84 -172 -21 -310 47 -103 49 -149 8 -188 -22 -21 -121 -64 -121 -53 0 1 9 34
19 72 10 39 22 89 26 112 l6 41 -53 20 c-29 10 -138 47 -243 82 -301 99 -531
197 -728 312 -69 40 -84 60 -101 130 -6 26 -2 30 55 58 151 76 237 239 199
375 -12 43 -11 47 9 69 27 28 61 116 61 155 0 69 -54 163 -115 201 -30 18 -33
25 -28 54 3 18 0 43 -6 54 -16 29 3 65 44 85 78 37 135 111 135 173 0 15 11
47 25 70 48 82 43 158 -17 255 -25 41 -27 50 -17 78 17 47 5 106 -32 165 -24
38 -38 80 -56 170 -41 207 -100 324 -227 451 -137 137 -281 215 -443 239 l-88
12 2 54 c1 51 4 57 45 92 104 90 205 122 383 121 211 -1 337 -39 640 -188 232
-115 292 -137 410 -156 78 -12 81 -14 113 -56 l32 -44 -24 -32 c-24 -31 -78
-172 -95 -247 -4 -19 -13 -45 -19 -57 -7 -12 -12 -32 -12 -45 0 -13 -7 -32
-15 -42 -8 -11 -15 -30 -15 -43 0 -13 -9 -41 -20 -63 -11 -22 -20 -49 -20 -60
0 -11 -9 -38 -20 -60 -11 -22 -20 -50 -20 -64 0 -14 -4 -28 -10 -31 -5 -3 -19
-38 -30 -78 -12 -40 -31 -91 -42 -114 -11 -23 -17 -47 -13 -53 3 -5 -3 -22
-15 -38 -11 -15 -22 -44 -24 -64 -2 -19 -10 -46 -19 -59 -10 -13 -17 -36 -17
-52 0 -15 -9 -41 -21 -56 -12 -16 -22 -42 -23 -57 -2 -16 -10 -43 -19 -61 -10
-18 -17 -44 -17 -58 0 -14 -9 -38 -20 -53 -11 -15 -21 -43 -22 -62 -1 -19 -13
-50 -25 -69 -13 -19 -23 -43 -23 -54 0 -11 -9 -34 -19 -51 -10 -17 -22 -45
-26 -63 -3 -17 -15 -48 -26 -69 -10 -21 -19 -45 -19 -54 0 -9 -11 -31 -25 -50
-21 -28 -25 -45 -25 -103 0 -62 3 -74 36 -122 19 -30 71 -87 114 -128 184
-174 457 -250 775 -218 139 14 225 38 344 97 78 38 109 61 185 138 143 141
178 239 121 331 -13 22 -25 49 -25 60 0 11 -9 35 -20 53 -11 18 -20 42 -20 53
0 11 -9 37 -20 59 -11 22 -20 45 -20 52 0 8 -9 32 -21 53 -12 22 -23 56 -26
75 -2 19 -11 46 -19 58 -9 13 -21 45 -29 70 -14 50 -27 89 -55 162 -26 67 -40
110 -54 160 -7 25 -20 59 -29 77 -10 18 -17 40 -17 50 0 10 -9 40 -19 68 -23
60 -58 167 -71 216 -5 19 -16 49 -25 65 -8 16 -15 37 -15 46 0 10 -8 37 -19
60 -10 24 -24 59 -31 78 -27 78 -33 96 -45 130 -7 19 -27 82 -45 140 -19 61
-44 120 -61 141 -25 33 -28 43 -22 87 5 48 7 50 47 62 104 31 191 100 231 185
56 119 22 266 -78 332 -136 91 -307 18 -307 -131 0 -58 17 -94 51 -112 37 -19
62 -18 90 5 21 17 22 21 9 50 -11 28 -10 34 5 51 24 27 40 25 65 -7 38 -49 11
-114 -66 -159 l-45 -27 -50 24 c-47 21 -53 22 -97 9 -157 -45 -260 -12 -577
187 -184 116 -249 150 -359 189 l-79 28 34 15 c19 8 36 17 38 18 2 1 -7 12
-20 23 -98 82 -322 86 -408 7 l-23 -22 7 25 c12 40 37 66 88 96 26 16 47 31
47 35 0 13 -166 32 -213 25 -28 -4 -68 -21 -98 -42 -37 -24 -49 -29 -44 -17
14 38 17 152 5 204 -14 62 -69 180 -104 224 l-24 29 -38 -59z m81 -125 c36
-103 42 -192 20 -259 -9 -29 -19 -51 -21 -49 -2 2 0 28 5 56 4 29 4 55 0 58
-5 3 -9 -4 -9 -15 0 -11 -4 -23 -10 -26 -14 -8 -12 8 5 84 15 62 14 96 -1 49
-6 -21 -8 -20 -19 17 l-13 40 -1 -40 -2 -40 -19 35 c-23 42 -26 28 -5 -30 25
-70 17 -93 -11 -35 -17 35 -23 61 -21 86 6 47 58 162 68 152 5 -5 20 -42 34
-83z m-66 -257 c14 -50 8 -52 -23 -6 -19 27 -26 50 -26 83 l0 45 20 -43 c10
-23 24 -59 29 -79z m-208 -18 c46 -16 78 -42 111 -87 14 -21 15 -26 4 -22 -11
4 -13 0 -9 -18 4 -22 4 -22 -21 5 -29 31 -38 34 -30 10 4 -13 0 -11 -15 6 -26
29 -26 22 -1 -32 l21 -42 -47 50 c-46 49 -49 47 -11 -8 27 -40 15 -44 -15 -5
-20 26 -68 109 -86 151 -6 12 54 8 99 -8z m569 10 c0 -3 -14 -30 -30 -59 -34
-60 -60 -88 -60 -65 0 8 -9 3 -20 -11 -21 -27 -26 -21 -9 13 7 16 3 14 -17 -8
l-27 -30 5 28 c7 34 3 34 -16 0 -13 -24 -15 -25 -16 -8 -1 19 -1 19 -19 -2
-23 -28 -32 -20 -20 16 16 45 82 102 136 117 51 13 93 18 93 9z m-765 -115
c38 -24 97 -84 72 -75 -9 4 -17 10 -17 14 0 4 -19 17 -42 30 -40 21 -42 21
-19 2 29 -26 21 -27 -29 -1 -50 26 -58 25 -34 -1 19 -22 19 -22 -1 -12 -11 6
-25 8 -32 6 -7 -2 -22 1 -33 7 -12 6 -24 9 -27 7 -3 -3 8 -12 24 -21 41 -22
13 -19 -53 5 -64 24 -62 34 13 55 59 17 137 9 178 -16z m1080 1 l40 -17 -45
-17 c-73 -26 -100 -29 -55 -7 37 19 38 20 10 15 -16 -2 -47 -9 -68 -14 -34 -8
-36 -7 -25 7 12 14 9 14 -22 8 -19 -5 -44 -9 -56 -10 -11 0 -29 -8 -40 -16
-10 -8 -6 0 11 18 55 60 156 74 250 33z m-619 -49 c7 -13 28 -40 47 -60 33
-34 57 -78 57 -104 0 -6 -12 7 -26 28 -15 21 -36 45 -46 53 -11 7 -28 34 -39
58 -16 37 -22 43 -33 33 -8 -6 -17 -24 -21 -39 -3 -15 -24 -45 -46 -67 -23
-21 -45 -48 -49 -59 -8 -17 -9 -16 -9 8 -1 20 11 41 40 70 22 23 47 57 55 75
10 26 19 33 36 30 12 -2 28 -14 34 -26z m-410 -63 c32 -6 66 -15 74 -21 11 -7
8 -8 -10 -3 -14 4 -68 9 -121 12 -104 6 -217 -12 -313 -47 -36 -14 -45 -15
-32 -5 30 23 12 18 -59 -16 -36 -17 -63 -34 -60 -39 3 -5 0 -12 -6 -16 -8 -5
-9 -3 -4 6 12 20 -31 3 -107 -42 -87 -51 -89 -61 -3 -13 36 20 65 34 65 31 0
-11 -130 -77 -140 -71 -6 4 -9 1 -8 -5 3 -14 -246 -142 -344 -176 -78 -28
-208 -43 -208 -25 0 6 17 11 40 11 110 0 253 59 452 188 205 132 363 210 473
232 60 12 244 11 311 -1z m1100 -9 c106 -27 206 -76 412 -204 96 -58 200 -120
232 -136 75 -38 191 -70 252 -70 27 0 48 -4 48 -10 0 -16 -81 -12 -161 9 -91
23 -270 102 -262 115 4 5 -1 7 -11 3 -10 -4 -15 -3 -11 3 8 12 -52 43 -67 34
-6 -4 -8 -3 -5 3 6 9 -111 86 -200 132 -51 26 -18 1 62 -48 47 -29 85 -55 85
-58 0 -2 -16 5 -36 18 -175 108 -319 171 -442 195 -87 17 -221 18 -275 3 -22
-6 -41 -8 -44 -6 -2 3 24 12 59 20 95 23 268 21 364 -3z m-642 -85 c17 -36 19
-59 7 -90 -7 -18 -9 -17 -24 10 -16 30 -16 30 -17 5 0 -21 -3 -18 -20 18 -10
23 -22 42 -25 42 -3 0 -13 -17 -21 -37 -11 -24 -18 -32 -23 -24 -6 9 -10 8
-15 -5 -8 -21 -23 -8 -26 21 -5 48 2 67 41 105 l41 40 33 -26 c18 -14 40 -40
49 -59z m-1946 3 c30 -22 52 -52 52 -72 0 -16 -3 -15 -21 8 -25 32 -70 56
-101 55 -19 -1 -18 -3 7 -9 29 -8 29 -8 -8 -9 -30 -1 -47 -9 -74 -36 -34 -34
-35 -38 -31 -89 6 -72 41 -117 121 -158 64 -32 66 -50 2 -24 -57 24 -95 55
-126 104 -33 52 -40 32 -10 -26 30 -59 121 -132 164 -132 9 0 17 -4 17 -10 0
-5 -7 -10 -15 -10 -20 0 -98 39 -107 54 -4 6 -13 11 -20 11 -7 0 -18 11 -24
24 -7 13 -16 26 -22 30 -21 14 -42 73 -42 122 0 143 141 241 238 167z m3893
-1 c42 -28 77 -79 85 -124 7 -35 -13 -150 -23 -139 -4 3 -13 0 -21 -6 -11 -10
-11 -5 2 26 9 21 16 46 16 55 -1 9 -7 3 -14 -14 -28 -65 -84 -112 -171 -145
-19 -7 -25 -6 -25 4 0 7 18 18 41 25 54 16 123 85 135 137 14 53 -1 118 -31
142 -19 15 -33 17 -76 12 -62 -8 -99 -42 -99 -93 0 -24 -3 -28 -10 -17 -24 37
-2 114 42 144 34 24 108 20 149 -7z m-2427 -13 c33 -9 91 -31 127 -50 76 -40
185 -133 157 -134 -10 0 -27 9 -38 20 -12 12 -26 18 -32 14 -6 -4 -8 -3 -5 3
7 12 -20 26 -88 46 -104 31 -148 37 -277 38 -93 1 -123 4 -98 10 27 6 20 7
-27 4 -60 -4 -269 -67 -333 -100 -18 -9 -34 -15 -36 -12 -12 11 311 152 391
170 49 11 201 6 259 -9z m1102 -4 c69 -18 339 -138 330 -147 -3 -3 -52 15
-111 42 -52 23 -217 64 -280 69 l-60 5 55 -14 c54 -14 54 -14 -65 -9 -111 5
-128 3 -205 -22 -47 -14 -98 -33 -115 -41 -30 -14 -22 -6 22 25 10 7 -1 3 -24
-8 -24 -11 -42 -26 -40 -33 1 -7 -6 -11 -17 -9 -10 2 -15 -1 -12 -7 4 -5 1
-13 -5 -17 -8 -4 -9 -3 -5 4 10 17 -6 15 -32 -4 -44 -31 -33 -6 17 38 62 54
170 113 242 132 80 22 211 20 305 -4z m-1876 -225 c0 -8 -147 -79 -230 -112
-83 -33 -187 -57 -216 -51 -10 2 15 10 56 17 90 16 185 50 300 107 96 48 90
46 90 39z m1233 -27 c-21 -7 -51 -7 -90 -1 l-58 10 90 1 c75 0 85 -2 58 -10z
m1283 -56 c-5 -4 -66 26 -66 33 0 3 16 -3 35 -12 19 -9 33 -18 31 -21z m-3042
-25 c16 -34 17 -44 6 -80 -7 -25 -29 -58 -54 -82 l-41 -40 -5 -585 -5 -585 -3
592 -2 592 29 33 c37 44 51 71 51 103 0 30 -24 81 -42 89 -7 3 1 4 17 3 24 -2
34 -10 49 -40z m3456 11 c-32 -53 -26 -98 20 -159 l40 -53 0 -585 c0 -321 -2
-582 -4 -580 -2 2 -6 263 -7 579 l-4 575 -43 46 c-39 43 -62 90 -62 129 0 28
39 80 60 80 20 0 20 0 0 -32z m-1757 -18 c3 -9 6 -4 6 13 1 17 6 27 16 27 11
0 15 -11 15 -40 0 -39 -1 -40 -33 -40 -31 0 -32 2 -32 38 0 39 13 39 28 2z
m1447 0 c30 -10 88 -23 128 -30 39 -6 72 -15 72 -19 0 -20 -184 23 -255 59
-22 11 -31 17 -20 14 11 -4 45 -14 75 -24z m533 1 c-13 -11 -23 -24 -23 -29 0
-11 -34 -22 -65 -22 -12 1 3 14 40 34 70 39 78 42 48 17z m-3765 -64 c-27 -10
-38 -1 -38 32 l0 29 29 -27 c27 -25 28 -26 9 -34z m3615 21 c-6 -30 -18 -35
-43 -17 -10 7 -11 12 -4 15 6 3 20 11 30 19 23 17 23 16 17 -17z m-1521 -113
c11 -7 -37 -10 -152 -10 -92 0 -167 2 -165 4 21 20 283 25 317 6z m75 -97
c120 -40 238 -131 305 -237 12 -19 -7 -4 -49 37 -37 37 -93 82 -124 100 -62
36 -221 96 -314 118 l-60 14 87 -5 c51 -3 116 -14 155 -27z m-868 -22 c-41
-12 -81 -26 -89 -31 -9 -6 -11 -4 -5 4 13 22 88 51 130 50 37 0 34 -2 -36 -23z
m603 -34 c261 -93 457 -299 528 -554 30 -110 25 -108 -24 10 -29 68 -110 202
-123 202 -5 0 2 -12 49 -82 56 -84 59 -103 3 -28 -101 138 -190 213 -360 302
-83 44 -102 62 -41 38 34 -13 33 -5 -1 15 l-28 16 27 -4 c81 -12 -55 55 -150
73 -63 13 -251 9 -287 -5 -14 -6 -17 -5 -10 3 41 45 305 53 417 14z m-1832
-26 c0 -5 -7 -3 -15 4 -8 7 -15 20 -15 28 0 13 3 12 15 -4 8 -10 15 -23 15
-28z m3463 16 c-3 -12 -9 -22 -14 -22 -12 0 -11 7 2 32 13 25 20 19 12 -10z
m135 3 c16 -34 15 -40 -2 -26 -16 13 -28 51 -17 51 4 0 13 -11 19 -25z m-3747
-18 c-8 -8 -11 -7 -11 4 0 20 13 34 18 19 3 -7 -1 -17 -7 -23z m2255 -28 c104
-39 217 -146 275 -261 41 -81 36 -82 -20 -2 -52 75 -142 153 -257 225 -115 71
-114 70 -79 62 17 -3 53 -14 81 -24z m-857 8 c-14 -7 -24 -18 -22 -24 3 -7 3
-13 0 -13 -2 0 -31 -11 -63 -25 -52 -22 -56 -23 -35 -5 41 35 7 22 -55 -22
l-59 -41 50 52 c59 61 116 91 170 90 39 -1 39 -1 14 -12z m-1406 -23 c-10 -15
-19 -22 -21 -15 -2 7 4 19 14 26 26 20 27 19 7 -11z m21 -521 c-7 -454 -7
-460 -28 -469 -30 -13 -31 -46 -1 -74 14 -13 25 -27 25 -32 0 -4 -40 -8 -90
-8 l-90 0 0 -45 0 -45 -55 0 -55 0 0 -290 0 -290 -100 0 c-82 0 -100 -3 -100
-15 0 -8 4 -15 9 -15 4 0 20 -17 35 -38 28 -41 34 -88 13 -116 -12 -16 -21
-17 -117 -5 -58 7 -107 14 -109 16 -2 1 3 11 11 20 9 10 19 34 23 53 4 19 16
46 26 59 11 13 19 37 19 53 0 17 9 41 20 55 11 14 20 40 20 58 0 18 6 38 14
44 8 7 18 27 22 44 3 18 17 58 30 89 13 32 24 67 24 79 0 11 9 32 20 46 11 14
20 39 20 55 0 17 9 41 20 55 11 14 20 38 20 52 0 14 8 42 19 61 10 19 21 49
25 67 4 17 16 48 27 69 10 21 19 46 19 56 0 10 9 35 20 55 11 21 20 47 20 58
1 11 7 31 15 45 8 14 15 36 15 50 0 14 7 34 15 44 8 11 15 32 15 48 0 15 9 45
20 65 11 21 20 49 20 63 0 14 7 34 15 44 8 11 15 31 15 45 0 14 9 40 20 56 11
17 20 44 20 60 0 17 7 39 15 49 8 11 15 30 15 43 0 13 6 36 14 51 7 15 16 44
20 66 4 21 10 36 12 33 3 -3 2 -212 -2 -464z m3612 256 c-2 -101 -4 -303 -5
-449 l-1 -265 -30 -17 c-37 -21 -39 -50 -3 -78 20 -16 24 -23 15 -32 -7 -7
-12 -26 -12 -43 0 -21 -9 -40 -29 -59 -41 -40 -53 -75 -49 -145 l3 -61 -172 0
c-166 0 -173 1 -173 20 0 11 9 34 20 52 11 18 20 45 20 60 0 15 9 42 20 60 11
18 20 46 20 61 0 16 9 40 20 54 11 14 20 40 20 58 0 18 7 38 15 45 8 7 17 28
20 49 4 20 15 52 26 72 10 20 19 46 19 58 0 11 9 35 20 53 11 18 20 43 20 54
0 12 7 35 15 50 8 16 15 40 15 54 0 14 7 34 15 44 8 11 15 32 15 48 0 15 9 42
20 60 11 18 20 44 20 58 0 14 7 34 15 44 8 11 15 34 15 51 0 17 7 40 15 51 8
10 15 29 15 42 0 13 7 36 15 51 8 16 17 48 21 71 14 88 23 10 20 -171z m-3467
93 c6 -2 11 -18 11 -35 0 -18 7 -41 15 -51 8 -11 15 -31 15 -45 0 -14 9 -41
20 -59 11 -18 20 -45 20 -60 0 -15 7 -36 15 -46 8 -11 15 -33 15 -48 0 -16 7
-39 16 -53 8 -13 17 -41 20 -61 3 -21 11 -45 19 -54 8 -9 15 -28 15 -41 0 -14
6 -33 14 -44 7 -11 17 -39 21 -62 3 -23 13 -47 20 -53 8 -7 17 -32 21 -57 4
-25 14 -53 24 -63 9 -9 17 -31 18 -49 0 -18 7 -42 15 -54 8 -13 18 -41 22 -64
3 -23 13 -47 21 -54 8 -6 14 -23 14 -38 0 -14 7 -37 15 -51 19 -34 20 -36 41
-110 10 -36 24 -76 31 -90 7 -14 13 -35 13 -46 0 -12 6 -27 14 -33 7 -6 16
-29 20 -50 3 -21 15 -50 26 -64 11 -14 20 -38 20 -55 0 -16 8 -40 19 -53 10
-13 21 -41 25 -61 4 -21 13 -44 21 -52 13 -12 13 -15 0 -20 -24 -9 -235 -30
-241 -24 -3 4 -1 22 4 42 23 81 -32 156 -114 156 l-44 0 -2 292 -3 292 -52 -3
-53 -2 0 45 0 46 -63 0 c-35 0 -67 3 -70 6 -4 4 5 20 18 36 21 24 23 33 14 50
-6 11 -19 22 -29 25 -16 4 -18 33 -22 421 -2 229 -2 437 0 462 l5 45 13 -55
c6 -30 17 -56 23 -58z m3581 65 c0 -18 7 -43 16 -55 9 -13 17 -35 19 -50 4
-35 43 -144 55 -156 6 -6 10 -24 10 -41 0 -17 7 -40 15 -52 8 -11 17 -39 21
-62 4 -22 13 -46 20 -52 8 -6 14 -24 14 -40 0 -16 9 -46 20 -66 11 -21 20 -50
20 -64 0 -15 7 -32 15 -39 8 -7 15 -24 15 -38 0 -14 9 -44 19 -66 10 -23 22
-57 25 -77 4 -21 13 -42 21 -49 8 -7 15 -24 15 -39 0 -14 7 -39 15 -54 8 -15
17 -45 21 -65 3 -20 14 -48 23 -62 10 -14 21 -43 24 -65 4 -22 13 -45 22 -51
8 -6 15 -19 15 -29 0 -23 69 -227 81 -240 5 -5 9 -21 9 -36 0 -14 8 -37 18
-50 11 -13 22 -41 25 -63 3 -21 13 -46 20 -55 8 -9 17 -33 21 -53 4 -21 14
-44 22 -53 9 -8 14 -15 12 -16 -10 -2 -193 -26 -195 -25 0 0 -3 64 -5 141 l-4
140 -49 5 -50 5 -3 133 -3 132 -124 0 -125 0 6 53 c8 64 -9 107 -61 157 -28
27 -32 35 -22 51 9 14 9 21 -1 31 -18 18 -15 42 9 56 27 17 22 63 -8 77 -23
10 -23 12 -23 196 0 102 -3 309 -7 459 -5 207 -3 271 5 266 7 -4 12 -22 12
-39z m-2402 -18 c-29 -27 -43 -45 -31 -40 34 17 73 31 73 27 0 -8 -133 -101
-141 -99 -13 4 -60 -60 -106 -144 -47 -86 -53 -86 -23 1 46 133 127 241 215
285 66 33 70 24 13 -30z m617 15 c81 -28 192 -100 231 -151 l27 -35 -29 18
-29 18 25 -29 c18 -21 19 -25 5 -14 -11 8 -32 23 -47 32 -26 16 -27 16 -21 0
3 -10 13 -27 22 -38 9 -11 -9 4 -39 34 -71 70 -143 124 -222 167 -55 30 -58
34 -28 29 19 -4 66 -18 105 -31z m-2004 -7 c-8 -8 -11 -7 -11 4 0 20 13 34 18
19 3 -7 -1 -17 -7 -23z m3609 14 c0 -5 -6 -14 -14 -20 -12 -10 -13 -8 -9 8 5
21 23 30 23 12z m250 -17 c0 -8 -4 -14 -9 -14 -11 0 -22 26 -14 34 9 9 23 -3
23 -20z m-2003 -59 c116 -36 241 -115 352 -221 53 -51 112 -114 130 -140 30
-42 21 -36 -65 46 -117 111 -251 206 -370 261 -90 42 -137 53 -67 16 23 -12
52 -35 64 -51 l22 -29 -21 12 c-28 15 -28 0 -1 -30 17 -20 20 -21 15 -5 -6 16
-4 17 10 5 9 -7 12 -15 6 -17 -6 -2 -8 -11 -5 -20 5 -14 1 -13 -18 4 -13 12
-30 24 -37 29 -20 11 0 -25 27 -49 12 -11 21 -23 21 -29 0 -5 -43 32 -95 81
-113 107 -158 132 -240 132 -62 0 -67 7 -13 20 74 18 204 11 285 -15z m-1567
-59 c0 -6 -7 -1 -15 10 -8 10 -14 26 -14 34 0 16 28 -28 29 -44z m3590 45 c0
-5 3 -18 6 -28 5 -16 4 -16 -10 1 -18 23 -20 36 -6 36 6 0 10 -4 10 -9z
m-3900 -10 c0 -5 -7 -14 -15 -21 -16 -14 -18 -10 -9 14 6 17 24 22 24 7z
m1477 -26 c-20 -20 -41 -44 -47 -55 -9 -17 -8 -19 7 -13 16 6 16 5 4 -10 -7
-9 -10 -17 -6 -17 4 0 -15 -24 -42 -53 -27 -29 -55 -63 -62 -76 -7 -12 -15
-20 -18 -17 -3 3 4 22 16 42 35 58 19 49 -23 -14 -42 -62 -40 -42 4 54 34 76
89 138 149 169 25 13 48 24 50 25 2 0 -12 -16 -32 -35z m2114 2 c-8 -8 -11 -7
-11 4 0 20 13 34 18 19 3 -7 -1 -17 -7 -23z m349 -51 c0 -8 -4 -18 -10 -21 -5
-3 -10 3 -10 14 0 12 5 21 10 21 6 0 10 -6 10 -14z m-3980 -29 c0 -7 -7 -22
-15 -33 -13 -17 -14 -16 -4 14 11 33 19 41 19 19z m3606 -3 c-3 -9 -6 -18 -6
-20 0 -2 -4 -4 -9 -4 -5 0 -7 9 -4 20 3 11 10 20 15 20 6 0 7 -7 4 -16z
m-1799 -51 c18 -10 81 -63 140 -119 111 -104 251 -214 329 -260 46 -27 56 -44
27 -44 -37 0 -147 -40 -169 -61 -29 -27 -34 -89 -8 -89 9 0 73 18 141 40 69
22 138 40 154 40 26 0 65 -25 168 -109 l43 -36 -5 -110 c-6 -140 -77 -427
-132 -537 -84 -167 -230 -323 -367 -394 -86 -44 -201 -48 -292 -10 -133 55
-325 259 -396 418 -29 66 -85 269 -105 382 -31 173 -6 431 56 578 23 52 67
130 55 96 -3 -10 -9 -26 -12 -35 -3 -10 11 12 33 50 42 75 102 149 139 173 67
44 149 55 201 27z m-1393 -49 c8 -21 8 -24 -3 -24 -5 0 -11 9 -14 20 -6 24 8
27 17 4z m3145 -28 c-9 -8 -10 -7 -5 7 3 10 7 24 7 30 1 7 3 4 6 -7 3 -10 -1
-23 -8 -30z m465 -6 c-7 -6 -24 22 -23 40 0 9 6 5 14 -10 7 -14 11 -27 9 -30z
m-4058 24 c-3 -9 -6 -18 -6 -20 0 -2 -4 -4 -9 -4 -5 0 -7 9 -4 20 3 11 10 20
15 20 6 0 7 -7 4 -16z m2563 -100 c12 -19 17 -33 12 -30 -5 3 -18 22 -30 42
-12 19 -17 33 -12 30 5 -3 18 -22 30 -42z m1512 3 c-8 -8 -11 -7 -11 4 0 20
13 34 18 19 3 -7 -1 -17 -7 -23z m-4118 -25 c-3 -12 -9 -22 -14 -22 -12 0 -11
7 2 32 13 25 20 19 12 -10z m3610 8 c-6 -22 -23 -38 -23 -21 0 17 12 41 20 41
5 0 6 -9 3 -20z m-3643 -97 c-1 -13 -29 -59 -30 -48 0 21 13 55 21 55 5 0 9
-3 9 -7z m595 -2 c-3 -5 -1 -12 5 -16 5 -3 10 -11 10 -18 0 -7 -7 -5 -16 5
-14 14 -13 38 2 38 3 0 3 -4 -1 -9z m2991 -86 c-4 -14 -10 -25 -15 -25 -5 0
-4 16 2 36 12 39 23 29 13 -11z m-3609 -22 c-3 -10 -5 -2 -5 17 0 19 2 27 5
18 2 -10 2 -26 0 -35z m2800 -140 c115 -62 197 -62 260 -1 l35 33 -14 -34
c-53 -132 -268 -91 -403 76 l-40 48 52 -45 c28 -26 77 -60 110 -77z m-2833 63
c-6 -25 -24 -37 -24 -15 0 15 21 52 26 46 3 -3 2 -16 -2 -31z m712 18 c-3 -8
-1 -25 5 -36 6 -11 8 -22 6 -25 -8 -8 -39 56 -32 67 10 16 28 11 21 -6z m2894
-14 c0 -17 -17 -37 -25 -29 -2 2 -1 16 2 31 6 30 23 28 23 -2z m-3654 -138
c-12 -11 -18 7 -10 30 l8 23 4 -23 c2 -13 1 -26 -2 -30z m802 20 c5 -31 -15
-27 -21 3 -3 16 0 24 7 22 6 -2 12 -13 14 -25z m2798 -9 c-11 -11 -17 4 -9 23
7 18 8 18 11 1 2 -10 1 -21 -2 -24z m810 -13 c0 -11 -4 -20 -8 -20 -4 0 -8 9
-8 20 0 11 4 20 8 20 4 0 8 -9 8 -20z m-4454 -116 c-14 -24 -21 -3 -9 26 8 20
11 22 14 8 2 -10 0 -25 -5 -34z m888 20 c0 -14 -4 -23 -10 -19 -5 3 -10 15
-10 26 0 10 5 19 10 19 6 0 10 -12 10 -26z m2725 4 c-10 -31 -25 -47 -25 -26
0 24 11 48 22 48 5 0 6 -10 3 -22z m-3157 5 c-10 -2 -28 -2 -40 0 -13 2 -5 4
17 4 22 1 32 -1 23 -4z m4037 -38 l6 -30 -15 25 c-17 28 -22 60 -7 45 5 -6 12
-23 16 -40z m-3568 -92 c-4 -17 -4 -17 -12 0 -4 9 -4 25 0 35 8 16 8 16 12 0
3 -10 3 -26 0 -35z m2653 29 c0 -5 -7 -17 -15 -28 -15 -19 -20 -8 -9 20 6 17
24 22 24 8z m490 -2 c0 -5 -13 -10 -30 -10 -16 0 -30 5 -30 10 0 6 14 10 30
10 17 0 30 -4 30 -10z m-4104 -36 c-5 -19 -10 -24 -17 -17 -8 8 -7 18 1 33 15
28 24 19 16 -16z m374 -219 l0 -255 -44 0 c-25 0 -46 5 -48 12 -2 6 -3 117 -1
247 2 130 3 239 3 244 0 4 20 7 45 7 l45 0 0 -255z m258 -10 c3 -282 -2 -365
-22 -365 -11 0 -12 57 -8 295 l5 295 -77 0 -76 0 0 -295 c0 -256 -2 -295 -15
-295 -13 0 -15 42 -15 315 l0 316 103 -3 102 -3 3 -260z m927 144 c7 -27 10
-49 5 -49 -4 0 -13 23 -20 51 -7 27 -14 48 -17 46 -2 -3 1 -26 8 -51 12 -47 6
-73 -11 -46 -17 28 -43 139 -36 156 6 15 11 11 33 -21 14 -20 31 -60 38 -86z
m1495 94 c-1 -10 -11 -47 -23 -82 -18 -53 -26 -65 -44 -66 -25 -2 -27 8 -12
40 9 19 9 18 5 -3 -2 -12 0 -20 5 -16 5 3 9 14 9 25 0 26 40 119 51 119 5 0 9
-8 9 -17z m1530 -28 l25 -30 -33 29 c-17 17 -32 34 -32 40 0 6 3 6 8 1 4 -6
18 -23 32 -40z m-463 -21 c41 -31 63 -73 62 -116 0 -18 -3 -26 -6 -18 -15 42
-36 80 -44 80 -6 0 -5 -9 1 -21 17 -31 4 -36 -21 -8 l-21 24 16 -25 c9 -13 16
-34 15 -45 0 -19 -1 -19 -9 1 -13 34 -29 38 -27 8 3 -38 -14 -39 -40 -1 -19
26 -23 28 -24 12 0 -17 -2 -16 -10 5 -6 13 -7 36 -4 50 5 24 5 24 -10 6 -8
-11 -15 -29 -15 -40 0 -10 -3 -17 -6 -13 -21 21 56 127 93 127 9 0 31 -11 50
-26z m-3577 -4 c0 -5 -11 -10 -25 -10 -14 0 -25 5 -25 10 0 6 11 10 25 10 14
0 25 -4 25 -10z m-320 -10 c0 -5 -9 -10 -20 -10 -11 0 -20 5 -20 10 0 6 9 10
20 10 11 0 20 -4 20 -10z m505 1 c-6 -11 -45 -10 -45 1 0 4 12 8 26 8 14 0 23
-4 19 -9z m269 -27 c11 -28 6 -39 -9 -20 -8 11 -15 23 -15 28 0 14 18 9 24 -8z
m2570 -24 c-6 -25 -9 -29 -16 -16 -5 10 -5 24 2 37 16 28 22 19 14 -21z
m-3615 -12 c-7 -13 -14 -18 -16 -11 -3 7 1 22 8 35 7 13 14 18 16 11 3 -7 -1
-22 -8 -35z m271 17 c0 -27 -6 -30 -29 -16 -17 11 -7 41 14 41 9 0 15 -9 15
-25z m320 16 c0 -4 -11 -6 -25 -3 -14 2 -25 6 -25 8 0 2 11 4 25 4 14 0 25 -4
25 -9z m4070 -34 c0 -5 -7 -4 -15 3 -8 7 -15 20 -15 29 1 13 3 13 15 -3 8 -11
15 -24 15 -29z m-3890 6 c0 -7 -9 -13 -20 -13 -11 0 -20 6 -20 13 0 7 9 13 20
13 11 0 20 -6 20 -13z m-180 -2 c0 -4 -11 -6 -25 -3 -14 2 -25 6 -25 8 0 2 11
4 25 4 14 0 25 -4 25 -9z m-320 -31 c0 -5 -6 -10 -14 -10 -8 0 -18 5 -21 10
-3 6 3 10 14 10 12 0 21 -4 21 -10z m0 -30 c0 -5 -9 -10 -20 -10 -11 0 -20 5
-20 10 0 6 9 10 20 10 11 0 20 -4 20 -10z m318 3 c-10 -2 -26 -2 -35 0 -10 3
-2 5 17 5 19 0 27 -2 18 -5z m182 -3 c0 -5 -9 -10 -20 -10 -11 0 -20 5 -20 10
0 6 9 10 20 10 11 0 20 -4 20 -10z m3918 -2 c0 -7 3 -24 7 -38 6 -24 6 -24
-10 3 -9 15 -13 32 -10 37 8 13 11 13 13 -2z m-3595 -17 c6 -26 -8 -49 -17
-26 -9 24 -8 45 3 45 5 0 11 -9 14 -19z m-1131 -26 c-2 -14 -8 -25 -13 -25
-10 0 -11 7 -3 37 8 31 23 20 16 -12z m1663 25 c4 -6 -4 -20 -17 -31 -23 -20
-23 -20 0 -9 15 7 22 7 22 0 0 -6 -12 -16 -26 -22 -28 -13 -44 -1 -44 34 0 28
51 50 65 28z m1435 -10 c14 -26 4 -60 -17 -60 -20 0 -53 29 -53 46 0 14 27 33
47 34 7 0 17 -9 23 -20z m501 -33 c-13 -13 -15 11 -4 40 7 16 8 15 11 -6 2
-13 -1 -28 -7 -34z m-3291 -51 c0 -87 -13 -121 -24 -65 -10 52 -7 99 7 99 8 0
7 4 -3 10 -13 8 -13 11 -1 19 11 7 10 10 -5 14 -16 4 -16 5 4 6 21 1 22 -2 22
-83z m320 52 c0 -4 -12 -8 -26 -8 -14 0 -23 4 -19 9 6 11 45 10 45 -1z m180 2
c0 -5 -9 -10 -20 -10 -11 0 -20 5 -20 10 0 6 9 10 20 10 11 0 20 -4 20 -10z
m2860 -62 c0 -15 7 -45 16 -67 14 -35 14 -42 0 -69 -8 -16 -17 -45 -19 -64 -2
-19 -14 -49 -27 -66 -36 -49 -38 -124 -6 -185 l26 -49 -37 6 c-21 3 -63 8 -93
11 -30 4 -63 9 -73 12 -17 4 -17 6 -3 22 9 10 19 33 23 52 3 18 12 40 19 47 8
7 20 35 28 63 8 27 22 59 30 71 9 12 16 33 16 45 0 13 9 40 20 60 11 21 20 46
20 55 0 10 10 38 22 63 23 47 38 45 38 -7z m-3040 -8 c0 -5 -11 -10 -25 -10
-14 0 -25 5 -25 10 0 6 11 10 25 10 14 0 25 -4 25 -10z m180 0 c0 -5 -9 -10
-20 -10 -11 0 -20 5 -20 10 0 6 9 10 20 10 11 0 20 -4 20 -10z m3700 -87 l0
-93 -395 0 c-417 0 -414 0 -380 44 8 11 15 29 15 40 0 21 3 21 350 20 334 -2
351 -1 361 17 9 18 0 19 -360 19 -383 0 -381 0 -381 38 0 4 178 7 395 7 l395
0 0 -92z m-940 62 c0 -16 -6 -25 -15 -25 -18 0 -18 5 -5 31 14 26 20 24 20 -6z
m-3619 -22 c-10 -17 -10 -16 -11 3 0 23 13 41 18 25 2 -6 -1 -18 -7 -28z m859
16 c0 -5 -9 -9 -20 -9 -11 0 -20 4 -20 8 0 4 9 8 20 9 11 1 20 -2 20 -8z m367
-16 c-3 -3 -11 -2 -17 2 -9 6 -9 10 1 16 14 8 27 -7 16 -18z m-549 10 c-10 -2
-26 -2 -35 0 -10 3 -2 5 17 5 19 0 27 -2 18 -5z m1117 -117 c37 -73 31 -131
-16 -175 -35 -33 -42 -25 -14 16 32 49 33 99 1 146 -39 57 -46 74 -39 92 5 15
8 15 24 -6 11 -13 30 -46 44 -73z m1290 63 c-4 -12 -20 -42 -36 -67 -38 -61
-39 -118 -3 -161 33 -40 17 -40 -22 0 -45 47 -41 106 11 187 40 62 62 80 50
41z m-1411 -1 c-5 -7 -25 -35 -46 -61 -21 -27 -41 -60 -44 -73 -8 -30 3 -74
23 -96 9 -10 12 -18 6 -18 -15 0 -50 42 -56 68 -9 39 13 93 60 143 42 45 74
66 57 37z m1510 -29 c45 -40 76 -92 76 -130 0 -20 -56 -89 -72 -89 -5 0 2 15
16 33 42 55 35 84 -42 175 -53 62 -43 68 22 11z m-2504 21 c0 -5 -9 -10 -19
-10 -11 0 -23 5 -26 10 -4 6 5 10 19 10 14 0 26 -4 26 -10z m180 0 c0 -5 -9
-10 -20 -10 -11 0 -20 5 -20 10 0 6 9 10 20 10 11 0 20 -4 20 -10z m2280 -62
c0 -6 -9 1 -20 15 -11 14 -20 29 -20 34 1 11 40 -37 40 -49z m-3179 -11 c-8
-8 -11 -4 -11 14 0 33 14 47 18 19 2 -12 -1 -27 -7 -33z m1309 22 c0 -10 -4
-19 -10 -19 -5 0 -10 12 -10 26 0 14 4 23 10 19 6 -3 10 -15 10 -26z m2303 -4
c-3 -13 -9 -23 -13 -20 -4 2 -5 16 -3 30 3 13 9 23 13 20 4 -2 5 -16 3 -30z
m1297 -1 c0 -14 -4 -22 -10 -19 -5 3 -10 17 -10 31 0 14 4 22 10 19 6 -3 10
-17 10 -31z m-4010 16 c0 -5 -9 -10 -20 -10 -11 0 -20 5 -20 10 0 6 9 10 20
10 11 0 20 -4 20 -10z m827 -17 c-1 -20 2 -27 13 -25 12 3 13 1 3 -9 -19 -19
-37 3 -29 35 8 34 15 33 13 -1z m-1007 -13 c0 -5 -9 -10 -19 -10 -11 0 -23 5
-26 10 -4 6 5 10 19 10 14 0 26 -4 26 -10z m2434 -31 c-8 -13 -24 -1 -24 18 0
13 3 13 15 3 8 -7 12 -16 9 -21z m-1462 -1 c2 -18 10 -23 33 -23 24 0 31 -5
36 -25 6 -21 7 -19 8 12 1 50 21 60 21 11 0 -51 -19 -85 -50 -90 -13 -2 -27
-8 -30 -13 -10 -17 -40 24 -47 63 -6 40 3 87 16 87 6 0 11 -10 13 -22z m1538
-44 c0 -32 -32 -84 -53 -84 -8 0 -7 4 1 12 16 16 16 33 0 20 -26 -20 -55 -23
-62 -6 -5 14 -4 15 9 4 19 -16 19 -6 1 23 -8 12 -17 33 -21 47 -7 24 -7 24 12
7 27 -23 83 -6 83 26 1 22 1 22 15 3 8 -11 15 -34 15 -52z m-2688 2 c-4 -33
-7 -36 -38 -36 -20 0 -34 5 -34 13 0 6 -3 22 -6 34 -5 19 -2 22 33 25 50 4 50
5 45 -36z m178 4 c0 -12 -8 -12 -35 0 -18 8 -17 9 8 9 15 1 27 -3 27 -9z m180
0 c0 -5 -6 -10 -14 -10 -8 0 -18 5 -21 10 -3 6 3 10 14 10 12 0 21 -4 21 -10z
m450 -28 c0 -21 -2 -24 -10 -12 -13 20 -13 53 0 45 6 -3 10 -18 10 -33z m2223
8 c-3 -11 -9 -20 -14 -20 -10 0 -11 12 -3 34 9 22 23 10 17 -14z m-3603 1 c0
-19 -17 -38 -25 -29 -7 7 7 48 16 48 5 0 9 -9 9 -19z m4983 5 c6 -16 -2 -28
-14 -20 -12 7 -11 34 0 34 5 0 11 -6 14 -14z m-253 -106 l0 -100 -438 0 -439
0 -22 24 c-14 15 -25 42 -28 68 -4 37 -1 49 22 76 l27 32 439 0 439 0 0 -100z
m-3800 80 c0 -5 -6 -10 -14 -10 -8 0 -18 5 -21 10 -3 6 3 10 14 10 12 0 21 -4
21 -10z m137 -82 c29 -27 30 -71 1 -98 -21 -19 -33 -20 -425 -20 -267 0 -402
3 -398 10 4 6 137 10 366 10 233 0 359 4 359 10 0 6 -127 11 -357 12 l-358 3
353 2 c223 2 352 7 352 13 0 6 -128 10 -355 10 -230 0 -355 4 -355 10 0 6 128
10 365 10 234 0 365 4 365 10 0 6 -135 11 -372 12 -247 2 -373 7 -375 13 -2 8
126 11 404 13 404 1 408 1 430 -20z m2483 -3 c0 -16 -6 -25 -15 -25 -18 0 -18
5 -5 31 14 26 20 24 20 -6z m-3604 -22 c-5 -12 -10 -13 -18 -5 -8 8 -8 15 3
28 15 18 25 4 15 -23z m1484 17 c0 -11 -4 -20 -10 -20 -5 0 -10 9 -10 20 0 11
5 20 10 20 6 0 10 -9 10 -20z m3598 -4 c-1 -14 -6 -22 -10 -20 -12 7 -10 44 2
44 5 0 9 -11 8 -24z m-1782 -117 l5 -44 -24 50 c-25 52 -25 77 0 52 8 -8 17
-34 19 -58z m-67 -57 l0 -37 -14 43 c-7 23 -21 55 -30 70 -15 24 -13 23 14 -6
24 -25 31 -41 30 -70z m-79 26 c11 -18 20 -46 19 -63 0 -28 -1 -28 -13 10 -7
22 -18 50 -25 63 -18 34 -3 26 19 -10z m-127 -74 c16 -36 26 -68 23 -71 -9 -9
-55 51 -56 72 0 11 -3 30 -6 43 -13 47 12 19 39 -44z m1570 59 c-23 -2 -64 -2
-90 0 -26 2 -7 3 42 3 50 0 71 -1 48 -3z m-4377 -25 c213 -26 1024 -14 1149
18 16 4 17 3 5 -5 -25 -15 -199 -59 -300 -75 -54 -8 -167 -15 -260 -16 -91 0
-180 -3 -198 -6 -27 -5 -36 -2 -48 15 -12 16 -26 21 -59 21 -88 0 -402 45
-425 61 -11 8 -9 9 11 5 14 -3 70 -11 125 -18z m3595 2 c267 -25 845 -22 1106
5 l48 5 -40 -15 c-110 -43 -322 -73 -530 -75 -88 0 -171 -2 -185 -4 -14 -1
-50 1 -80 4 -46 6 -36 8 60 10 l115 3 -120 8 c-66 5 -169 16 -229 24 -60 8
-111 13 -114 10 -3 -3 5 -5 18 -5 13 0 21 -3 17 -6 -7 -7 -174 34 -197 48 -11
7 -9 7 6 3 12 -3 68 -10 125 -15z m-3493 -47 c-10 -2 -26 -2 -35 0 -10 3 -2 5
17 5 19 0 27 -2 18 -5z m1872 -58 c19 -37 38 -69 43 -72 6 -3 7 -2 4 3 -10 16
-47 114 -43 114 2 0 27 -31 55 -70 29 -38 54 -70 57 -70 2 0 -9 24 -26 53 -34
61 -38 77 -12 55 114 -102 361 -112 466 -21 14 13 26 18 26 12 0 -8 5 -8 15 1
21 17 19 1 -6 -39 -30 -50 -17 -47 21 4 46 61 62 60 40 -2 l-10 -28 20 25 c11
14 25 40 31 58 18 55 28 26 25 -81 -2 -82 -6 -110 -24 -144 -31 -60 -111 -152
-236 -275 l-109 -106 -75 66 c-106 95 -249 258 -277 317 -14 28 -27 76 -30
110 -3 45 -2 54 5 35 7 -18 8 -5 4 48 -3 39 -3 72 -1 72 2 0 19 -29 37 -65z
m1785 55 l30 -8 -30 0 c-16 0 -43 4 -60 8 l-30 8 30 0 c17 0 44 -4 60 -8z
m-3470 -20 c31 -7 24 -7 -30 -3 -38 3 -72 7 -74 9 -8 7 64 3 104 -6z m3553 3
c-10 -2 -26 -2 -35 0 -10 3 -2 5 17 5 19 0 27 -2 18 -5z m-1613 -73 l50 -9
-54 4 c-53 4 -161 48 -161 65 0 5 26 -5 58 -21 32 -17 80 -34 107 -39z m597
-92 c27 -73 33 -203 14 -330 -18 -122 -119 -528 -131 -528 -2 0 -60 80 -129
178 -69 98 -132 185 -141 192 -14 11 -21 11 -48 -5 -18 -10 24 39 98 116 72
74 152 164 179 202 57 80 105 188 106 237 l0 34 16 -23 c9 -13 25 -46 36 -73z
m-929 -100 c45 -77 149 -201 249 -298 54 -53 98 -99 98 -102 0 -4 -14 1 -30
10 -37 20 -19 39 -187 -201 l-118 -168 -13 32 c-18 44 -86 295 -108 399 -13
60 -19 129 -19 235 0 144 1 152 28 210 l29 60 23 -67 c12 -37 34 -87 48 -110z
m-1490 -203 c20 -14 46 -43 57 -65 32 -62 26 -108 -25 -210 -24 -49 -47 -106
-51 -127 -9 -59 11 -116 54 -155 43 -39 97 -60 383 -147 212 -65 398 -143 524
-220 128 -78 202 -112 339 -156 108 -35 130 -46 133 -64 1 -11 1 -21 -1 -21
-3 0 -37 7 -77 15 -40 9 -74 13 -77 11 -2 -3 7 -8 21 -11 14 -4 35 -17 47 -30
l21 -22 -23 2 c-13 2 -109 56 -213 120 -213 132 -396 231 -498 270 -88 33 -94
32 -27 -6 58 -33 222 -151 217 -156 -2 -1 -40 15 -84 37 -131 64 -341 142
-560 210 -70 21 -125 45 -170 76 l-68 45 45 -42 c25 -23 34 -36 22 -30 -41 22
-102 83 -129 128 -33 56 -34 140 -3 209 24 56 33 55 17 -3 -8 -30 -8 -48 0
-65 l12 -23 0 27 c1 38 19 80 31 73 5 -3 7 0 5 7 -3 8 6 29 20 48 28 38 34 33
8 -8 -12 -21 -9 -19 15 8 30 34 44 68 21 54 -6 -3 -3 8 6 26 19 36 11 55 -11
25 -9 -12 -24 -19 -38 -17 -13 2 -27 -2 -31 -7 -3 -6 -10 -11 -16 -11 -13 0
-49 38 -49 51 0 7 9 0 21 -15 11 -14 25 -26 30 -26 5 0 0 9 -11 20 -37 37 -18
91 35 102 18 4 16 6 -9 17 -24 9 -35 8 -65 -6 -20 -10 -41 -29 -48 -43 -15
-30 -17 -8 -3 42 24 85 124 116 203 63z m3957 9 c22 -14 60 -61 60 -76 0 -8
-40 -6 -45 3 -8 12 -86 11 -105 -1 -11 -7 -8 -10 16 -10 60 0 96 -69 57 -112
-17 -19 -53 -25 -53 -8 0 6 -5 10 -11 10 -5 0 -7 -4 -4 -10 13 -21 -17 -9 -40
16 -24 26 -25 26 -25 5 0 -27 23 -72 45 -91 24 -20 65 -105 65 -135 0 -17 4
-24 11 -19 11 7 8 74 -6 119 -3 11 8 -7 25 -40 17 -34 30 -76 30 -96 0 -46
-22 -109 -52 -150 -28 -37 -98 -90 -110 -83 -4 3 -8 0 -8 -7 0 -7 -3 -9 -7 -6
-3 4 -12 -1 -19 -11 -11 -13 -15 -14 -22 -4 -5 8 -16 10 -27 6 -18 -7 -18 -8
0 -14 28 -10 -177 -93 -521 -210 -146 -50 -182 -55 -74 -11 211 87 275 111
295 111 12 0 28 7 35 15 16 19 18 20 -81 -14 -105 -35 -290 -114 -347 -147
-24 -14 -47 -24 -52 -22 -5 2 51 43 125 93 73 49 132 91 130 93 -2 2 -47 -15
-99 -37 -128 -55 -290 -145 -495 -275 -129 -82 -148 -92 -131 -71 17 21 13 20
-45 -17 -30 -19 -30 -19 3 10 18 16 51 35 73 41 71 21 35 22 -52 1 -104 -25
-109 -25 -109 -1 0 16 23 27 128 62 137 45 192 70 347 159 179 103 305 152
727 285 135 42 188 73 218 128 32 57 23 122 -32 234 -53 108 -57 168 -16 230
44 67 136 93 198 57z m-2212 -491 c17 -14 32 -33 32 -42 0 -9 -16 -61 -35
-116 -34 -99 -35 -99 -103 -151 l-69 -53 -21 72 c-36 128 -36 133 -7 172 15
19 31 32 36 29 5 -3 6 1 3 9 -3 8 3 20 12 28 16 12 17 12 10 -1 -4 -8 1 -4 12
10 11 13 18 28 16 31 -2 4 5 23 17 43 l21 35 21 -20 c12 -12 37 -32 55 -46z
m402 48 c0 -12 85 -138 115 -171 21 -22 23 -30 15 -70 -13 -63 -38 -151 -44
-158 -4 -3 -16 4 -29 15 -12 11 -43 34 -69 51 -43 30 -48 38 -77 124 -16 51
-31 101 -33 110 -2 12 17 34 52 63 56 45 70 52 70 36z m-205 -91 c-8 -13 -55
-13 -75 0 -11 7 -2 10 33 10 30 0 46 -4 42 -10z m-987 -14 c105 -55 140 -212
71 -325 -24 -40 -37 -35 -16 6 8 15 18 39 21 53 6 18 0 14 -19 -15 -25 -39
-26 -39 -20 -10 l5 30 -17 -27 c-20 -31 -38 -36 -47 -12 -3 8 -10 12 -16 9
-14 -9 -12 5 5 35 30 53 11 139 -37 169 -26 16 -35 6 -15 -17 10 -10 17 -27
17 -37 0 -15 -6 -17 -35 -12 -28 5 -35 3 -35 -11 -1 -15 -3 -15 -15 2 -18 24
-19 93 -1 125 27 48 99 65 154 37z m2005 3 c39 -20 57 -51 56 -99 0 -38 -5
-49 -30 -68 -23 -19 -29 -20 -29 -8 0 9 -4 16 -10 16 -5 0 -10 -5 -10 -11 0
-5 -4 -7 -10 -4 -15 9 -12 48 6 73 17 24 13 27 -17 12 -56 -30 -63 -141 -13
-207 25 -33 29 -59 4 -28 -7 8 -18 15 -25 15 -7 0 -20 10 -29 23 -15 21 -15
20 -2 -15 17 -44 4 -50 -21 -10 -10 15 -23 33 -30 40 -7 7 -13 23 -13 35 0 17
-2 19 -9 8 -6 -9 -4 -29 5 -53 7 -21 11 -38 8 -38 -2 0 0 -10 6 -22 11 -23 11
-23 -9 0 -45 51 -56 171 -22 246 36 82 130 128 194 95z m-1017 -58 c-3 -5 -2
-30 3 -55 l8 -46 -51 0 -51 0 3 55 4 55 45 0 c24 0 42 -4 39 -9z m-1586 -217
c252 -88 294 -104 320 -120 17 -10 18 -13 5 -9 -11 4 -61 20 -112 36 -168 53
-492 180 -393 153 14 -3 95 -31 180 -60z m1618 11 c145 -19 299 -180 318 -331
20 -168 -90 -356 -244 -414 -266 -102 -533 85 -534 376 -1 101 27 169 102 248
79 83 213 142 295 130 11 -1 39 -5 63 -9z m-1054 -71 c3 -7 -5 -9 -20 -6 -13
2 -24 7 -24 11 0 11 39 7 44 -5z m223 -363 c50 -17 100 -30 110 -29 16 0 147
-51 131 -52 -15 -1 -144 32 -221 57 -85 26 -177 69 -212 98 -11 9 7 3 40 -14
33 -17 101 -44 152 -60z"/>
<path d="M3228 4166 c-49 -26 -67 -42 -103 -89 -20 -26 -34 -47 -31 -47 2 0
27 16 56 35 29 19 63 35 77 35 31 0 211 -45 264 -66 49 -20 69 -13 69 24 0 41
-34 67 -120 92 -100 30 -177 35 -212 16z"/>
<path d="M3277 4025 c-43 -16 -127 -74 -127 -87 0 -5 -10 -7 -22 -3 -19 5 -17
0 12 -25 19 -16 42 -30 52 -30 10 0 32 -9 50 -20 18 -11 44 -20 57 -20 l24 0
-27 25 c-28 26 -32 40 -14 51 6 4 17 -1 25 -12 33 -46 44 -54 77 -54 27 0 40
7 59 31 24 31 25 31 36 12 5 -11 8 -23 5 -25 -2 -3 15 -8 38 -11 23 -3 44 -4
46 -3 1 2 -18 26 -43 54 -73 82 -153 108 -244 82 -19 -5 -37 -8 -39 -5 -7 7
47 25 94 32 49 6 124 -25 186 -78 58 -50 59 -24 2 31 -72 68 -158 87 -247 55z"/>
<path d="M3985 4031 c-51 -13 -91 -38 -119 -76 -38 -49 -24 -57 22 -13 20 20
53 44 72 53 45 23 134 24 180 2 24 -12 27 -15 10 -11 -124 28 -184 12 -263
-69 -32 -33 -56 -61 -54 -63 2 -2 25 -1 51 2 31 5 43 10 34 15 -10 7 -9 12 5
26 17 17 18 17 24 -5 3 -13 17 -28 30 -33 45 -17 70 -10 101 27 17 20 35 33
41 30 19 -12 12 -33 -16 -56 l-28 -21 30 4 c55 8 137 44 163 72 l27 27 -25
-13 c-23 -11 -24 -11 -11 4 12 15 11 17 -12 17 -17 0 -25 5 -22 13 6 18 -102
67 -160 72 -27 2 -63 1 -80 -4z"/>
<path d="M3553 3490 c2 -35 2 -35 51 -35 45 0 50 -3 58 -27 5 -14 16 -29 24
-32 17 -6 44 3 44 15 0 5 9 18 20 29 14 14 28 18 48 14 42 -9 84 41 52 61 -5
3 -10 -3 -10 -14 0 -11 -4 -23 -10 -26 -5 -3 -10 1 -10 9 0 26 -66 21 -95 -8
l-24 -24 -22 24 c-27 29 -83 33 -98 7 -8 -15 -10 -16 -15 -3 -13 41 -15 42
-13 10z"/>
<path d="M3433 3305 c6 -21 96 -56 181 -71 78 -13 96 -13 181 1 58 10 113 26
141 42 56 32 46 49 -19 32 -34 -8 -55 -8 -78 0 -18 6 -35 9 -38 6 -3 -3 5 -9
18 -12 19 -5 9 -10 -46 -24 -66 -17 -72 -17 -143 0 l-75 18 45 10 c39 8 30 9
-62 9 -67 -1 -107 -5 -105 -11z"/>
<path d="M3605 3151 c25 -28 67 -51 95 -51 26 0 92 33 110 55 12 15 11 15 -16
8 -39 -11 -164 -10 -189 1 -20 9 -20 9 0 -13z"/>
<path d="M4400 3550 c0 -12 28 -25 36 -17 3 3 -4 10 -15 17 -15 7 -21 7 -21 0z"/>
<path d="M5087 3162 c-21 -23 -22 -86 -1 -106 26 -26 32 -18 22 24 -9 35 -8
44 8 61 11 12 28 25 39 30 16 6 13 8 -16 8 -23 1 -42 -6 -52 -17z"/>
<path d="M5260 3171 c0 -19 96 -24 324 -18 127 4 248 7 269 7 20 0 37 5 37 10
0 6 -112 10 -315 10 -190 0 -315 -4 -315 -9z"/>
<path d="M5312 3124 c7 -6 380 -6 386 1 3 3 -84 5 -193 5 -109 0 -196 -3 -193
-6z"/>
<path d="M5345 3090 c-22 -4 56 -8 174 -9 118 0 212 1 210 3 -8 7 -345 12
-384 6z"/>
<path d="M5330 3050 c-30 -4 57 -7 194 -8 137 -1 247 0 244 3 -8 9 -375 12
-438 5z"/>
<path d="M2135 2860 l-60 -7 60 -1 c33 0 80 3 105 7 l45 8 -45 0 c-25 0 -72
-3 -105 -7z"/>
<path d="M5715 2860 l-60 -7 80 0 c44 0 94 3 110 7 25 6 22 8 -20 7 -27 0 -77
-3 -110 -7z"/>
<path d="M5710 2195 c-7 -8 -8 -15 -2 -15 5 0 15 7 22 15 7 8 8 15 2 15 -5 0
-15 -7 -22 -15z"/>
<path d="M3515 1385 c-55 -19 -85 -57 -85 -105 0 -56 35 -93 109 -114 96 -27
129 -64 101 -116 -14 -25 -70 -40 -115 -30 -41 9 -62 24 -70 51 -4 12 -16 19
-31 19 -32 0 -32 -29 1 -68 35 -42 74 -55 145 -50 52 4 66 9 93 36 28 29 32
39 32 88 0 50 -3 59 -31 84 -18 15 -61 37 -98 50 -72 24 -94 47 -76 80 15 28
50 40 121 40 l59 0 0 -58 c0 -52 3 -62 30 -87 l30 -29 0 88 0 89 68 -5 c106
-8 142 -42 142 -136 0 -56 -17 -83 -71 -118 -22 -13 -39 -32 -39 -42 0 -27
-20 -42 -58 -42 l-34 0 26 31 c26 31 37 99 16 99 -17 0 -50 -63 -50 -96 0 -16
-7 -39 -15 -50 -8 -10 -15 -21 -15 -24 0 -12 206 7 230 20 l25 15 -27 3 c-24
3 -28 8 -28 37 0 41 46 99 86 109 25 7 26 9 22 71 -6 91 -50 146 -134 165 -63
15 -313 11 -359 -5z"/>
<path d="M3966 1099 c-33 -26 -34 -49 -1 -49 15 0 41 14 63 35 l37 34 -36 1
c-22 0 -47 -8 -63 -21z"/>
</g>
</svg>
